<?xml version="1.0" encoding="utf-8" standalone="no"?>
<!DOCTYPE svg PUBLIC "-//W3C//DTD SVG 1.1//EN"
  "http://www.w3.org/Graphics/SVG/1.1/DTD/svg11.dtd">
<svg xmlns:xlink="http://www.w3.org/1999/xlink" width="720pt" height="360pt" viewBox="0 0 720 360" xmlns="http://www.w3.org/2000/svg" version="1.1">
 <metadata>
  <rdf:RDF xmlns:dc="http://purl.org/dc/elements/1.1/" xmlns:cc="http://creativecommons.org/ns#" xmlns:rdf="http://www.w3.org/1999/02/22-rdf-syntax-ns#">
   <cc:Work>
    <dc:type rdf:resource="http://purl.org/dc/dcmitype/StillImage"/>
    <dc:date>2026-09-15T05:40:36.664935</dc:date>
    <dc:format>image/svg+xml</dc:format>
    <dc:creator>
     <cc:Agent>
      <dc:title>Matplotlib v3.10.8, https://matplotlib.org/</dc:title>
     </cc:Agent>
    </dc:creator>
   </cc:Work>
  </rdf:RDF>
 </metadata>
 <defs>
  <style type="text/css">*{stroke-linejoin: round; stroke-linecap: butt}</style>
 </defs>
 <g id="figure_1">
  <g id="patch_1">
   <path d="M 0 360 
L 720 360 
L 720 0 
L 0 0 
z
" style="fill: #ffffff"/>
  </g>
  <g id="axes_1">
   <g id="patch_2">
    <path d="M 39.26 295.561549 
L 709.2 295.561549 
L 709.2 26.88 
L 39.26 26.88 
z
" style="fill: #ffffff"/>
   </g>
   <g id="patch_3">
    <path d="M 69.711818 295.561549 
L 91.687357 295.561549 
L 91.687357 87.360889 
L 69.711818 87.360889 
z
" clip-path="url(#p65860797d6)" style="fill: #1f77b4"/>
   </g>
   <g id="patch_4">
    <path d="M 132.499072 295.561549 
L 154.474611 295.561549 
L 154.474611 82.324024 
L 132.499072 82.324024 
z
" clip-path="url(#p65860797d6)" style="fill: #1f77b4"/>
   </g>
   <g id="patch_5">
    <path d="M 195.286326 295.561549 
L 217.261865 295.561549 
L 217.261865 72.379289 
L 195.286326 72.379289 
z
" clip-path="url(#p65860797d6)" style="fill: #1f77b4"/>
   </g>
   <g id="patch_6">
    <path d="M 258.07358 295.561549 
L 280.049119 295.561549 
L 280.049119 75.169343 
L 258.07358 75.169343 
z
" clip-path="url(#p65860797d6)" style="fill: #1f77b4"/>
   </g>
   <g id="patch_7">
    <path d="M 320.860834 295.561549 
L 342.836373 295.561549 
L 342.836373 74.136233 
L 320.860834 74.136233 
z
" clip-path="url(#p65860797d6)" style="fill: #1f77b4"/>
   </g>
   <g id="patch_8">
    <path d="M 383.648088 295.561549 
L 405.623627 295.561549 
L 405.623627 70.483908 
L 383.648088 70.483908 
z
" clip-path="url(#p65860797d6)" style="fill: #1f77b4"/>
   </g>
   <g id="patch_9">
    <path d="M 446.435342 295.561549 
L 468.410881 295.561549 
L 468.410881 71.539081 
L 446.435342 71.539081 
z
" clip-path="url(#p65860797d6)" style="fill: #1f77b4"/>
   </g>
   <g id="patch_10">
    <path d="M 509.222596 295.561549 
L 531.198135 295.561549 
L 531.198135 65.875197 
L 509.222596 65.875197 
z
" clip-path="url(#p65860797d6)" style="fill: #1f77b4"/>
   </g>
   <g id="patch_11">
    <path d="M 572.00985 295.561549 
L 593.985389 295.561549 
L 593.985389 64.896372 
L 572.00985 64.896372 
z
" clip-path="url(#p65860797d6)" style="fill: #1f77b4"/>
   </g>
   <g id="patch_12">
    <path d="M 634.797104 295.561549 
L 656.772643 295.561549 
L 656.772643 39.674359 
L 634.797104 39.674359 
z
" clip-path="url(#p65860797d6)" style="fill: #1f77b4"/>
   </g>
   <g id="patch_13">
    <path d="M 91.687357 295.561549 
L 113.662896 295.561549 
L 113.662896 236.907059 
L 91.687357 236.907059 
z
" clip-path="url(#p65860797d6)" style="fill: #ff7f0e"/>
   </g>
   <g id="patch_14">
    <path d="M 154.474611 295.561549 
L 176.45015 295.561549 
L 176.45015 237.477928 
L 154.474611 237.477928 
z
" clip-path="url(#p65860797d6)" style="fill: #ff7f0e"/>
   </g>
   <g id="patch_15">
    <path d="M 217.261865 295.561549 
L 239.237404 295.561549 
L 239.237404 248.939247 
L 217.261865 248.939247 
z
" clip-path="url(#p65860797d6)" style="fill: #ff7f0e"/>
   </g>
   <g id="patch_16">
    <path d="M 280.049119 295.561549 
L 302.024658 295.561549 
L 302.024658 234.952187 
L 280.049119 234.952187 
z
" clip-path="url(#p65860797d6)" style="fill: #ff7f0e"/>
   </g>
   <g id="patch_17">
    <path d="M 342.836373 295.561549 
L 364.811912 295.561549 
L 364.811912 235.515876 
L 342.836373 235.515876 
z
" clip-path="url(#p65860797d6)" style="fill: #ff7f0e"/>
   </g>
   <g id="patch_18">
    <path d="M 405.623627 295.561549 
L 427.599166 295.561549 
L 427.599166 236.146546 
L 405.623627 236.146546 
z
" clip-path="url(#p65860797d6)" style="fill: #ff7f0e"/>
   </g>
   <g id="patch_19">
    <path d="M 468.410881 295.561549 
L 490.38642 295.561549 
L 490.38642 230.39685 
L 468.410881 230.39685 
z
" clip-path="url(#p65860797d6)" style="fill: #ff7f0e"/>
   </g>
   <g id="patch_20">
    <path d="M 531.198135 295.561549 
L 553.173674 295.561549 
L 553.173674 236.981273 
L 531.198135 236.981273 
z
" clip-path="url(#p65860797d6)" style="fill: #ff7f0e"/>
   </g>
   <g id="patch_21">
    <path d="M 593.985389 295.561549 
L 615.960928 295.561549 
L 615.960928 234.066794 
L 593.985389 234.066794 
z
" clip-path="url(#p65860797d6)" style="fill: #ff7f0e"/>
   </g>
   <g id="patch_22">
    <path d="M 656.772643 295.561549 
L 678.748182 295.561549 
L 678.748182 223.378619 
L 656.772643 223.378619 
z
" clip-path="url(#p65860797d6)" style="fill: #ff7f0e"/>
   </g>
   <g id="matplotlib.axis_1">
    <g id="xtick_1">
     <g id="line2d_1">
      <path d="M 91.687357 295.561549 
L 91.687357 26.88 
" clip-path="url(#p65860797d6)" style="fill: none; stroke: #b0b0b0; stroke-opacity: 0.25; stroke-width: 0.8; stroke-linecap: square"/>
     </g>
     <g id="line2d_2">
      <defs>
       <path id="m7694b0c436" d="M 0 0 
L 0 3.5 
" style="stroke: #000000; stroke-width: 0.8"/>
      </defs>
      <g>
       <use xlink:href="#m7694b0c436" x="91.687357" y="295.561549" style="stroke: #000000; stroke-width: 0.8"/>
      </g>
     </g>
     <g id="text_1">
      <!-- tcn_window_2s -->
      <g transform="translate(25.723803 340.062513) rotate(-25) scale(0.1 -0.1)">
       <defs>
        <path id="MicrosoftYaHei-74" d="M 2206 34 
Q 2006 -75 1666 -75 
Q 738 -75 738 953 
L 738 2950 
L 144 2950 
L 144 3456 
L 738 3456 
L 738 4288 
L 1347 4481 
L 1347 3456 
L 2206 3456 
L 2206 2950 
L 1347 2950 
L 1347 1063 
Q 1347 722 1462 575 
Q 1578 428 1847 428 
Q 2053 428 2206 544 
L 2206 34 
z
" transform="scale(0.015625)"/>
        <path id="MicrosoftYaHei-63" d="M 2934 156 
Q 2538 -81 1978 -81 
Q 1228 -81 772 400 
Q 316 881 316 1647 
Q 316 2497 808 3017 
Q 1300 3538 2125 3538 
Q 2600 3538 2938 3369 
L 2938 2763 
Q 2572 3031 2125 3031 
Q 1600 3031 1270 2667 
Q 941 2303 941 1697 
Q 941 1100 1252 762 
Q 1563 425 2091 425 
Q 2538 425 2934 719 
L 2934 156 
z
" transform="scale(0.015625)"/>
        <path id="MicrosoftYaHei-6e" d="M 3469 0 
L 2859 0 
L 2859 1966 
Q 2859 3031 2081 3031 
Q 1678 3031 1418 2731 
Q 1159 2431 1159 1972 
L 1159 0 
L 547 0 
L 547 3456 
L 1159 3456 
L 1159 2884 
L 1172 2884 
Q 1563 3538 2306 3538 
Q 2875 3538 3172 3173 
Q 3469 2809 3469 2113 
L 3469 0 
z
" transform="scale(0.015625)"/>
        <path id="MicrosoftYaHei-5f" d="M 2869 -1634 
L 0 -1634 
L 0 -1231 
L 2869 -1231 
L 2869 -1634 
z
" transform="scale(0.015625)"/>
        <path id="MicrosoftYaHei-77" d="M 4975 3456 
L 3944 0 
L 3306 0 
L 2619 2425 
Q 2575 2581 2563 2756 
L 2550 2756 
Q 2541 2625 2478 2431 
L 1734 0 
L 1116 0 
L 78 3456 
L 716 3456 
L 1406 894 
Q 1438 778 1453 578 
L 1478 578 
Q 1491 750 1538 903 
L 2281 3456 
L 2847 3456 
L 3572 891 
Q 3603 778 3622 572 
L 3650 572 
Q 3656 709 3706 891 
L 4381 3456 
L 4975 3456 
z
" transform="scale(0.015625)"/>
        <path id="MicrosoftYaHei-69" d="M 472 4675 
Q 472 4838 583 4948 
Q 694 5059 856 5059 
Q 1022 5059 1136 4950 
Q 1250 4841 1250 4675 
Q 1250 4513 1136 4405 
Q 1022 4297 856 4297 
Q 691 4297 581 4405 
Q 472 4513 472 4675 
z
M 544 0 
L 544 3456 
L 1156 3456 
L 1156 0 
L 544 0 
z
" transform="scale(0.015625)"/>
        <path id="MicrosoftYaHei-64" d="M 3547 0 
L 2934 0 
L 2934 575 
L 2922 575 
Q 2544 -81 1747 -81 
Q 1091 -81 703 386 
Q 316 853 316 1647 
Q 316 2503 753 3020 
Q 1191 3538 1897 3538 
Q 2603 3538 2922 2988 
L 2934 2988 
L 2934 5116 
L 3547 5116 
L 3547 0 
z
M 2938 2056 
Q 2938 2472 2664 2751 
Q 2391 3031 1991 3031 
Q 1503 3031 1222 2667 
Q 941 2303 941 1675 
Q 941 1097 1211 761 
Q 1481 425 1931 425 
Q 2375 425 2656 754 
Q 2938 1084 2938 1575 
L 2938 2056 
z
" transform="scale(0.015625)"/>
        <path id="MicrosoftYaHei-6f" d="M 316 1691 
Q 316 2547 794 3042 
Q 1272 3538 2091 3538 
Q 2869 3538 3311 3061 
Q 3753 2584 3753 1744 
Q 3753 925 3281 422 
Q 2809 -81 2016 -81 
Q 1241 -81 778 406 
Q 316 894 316 1691 
z
M 941 1709 
Q 941 1113 1242 769 
Q 1544 425 2053 425 
Q 2578 425 2853 761 
Q 3128 1097 3128 1725 
Q 3128 2356 2853 2693 
Q 2578 3031 2053 3031 
Q 1538 3031 1239 2678 
Q 941 2325 941 1709 
z
" transform="scale(0.015625)"/>
        <path id="MicrosoftYaHei-32" d="M 2666 3572 
Q 2666 3963 2419 4186 
Q 2172 4409 1747 4409 
Q 1447 4409 1140 4256 
Q 834 4103 569 3819 
L 569 4413 
Q 806 4659 1107 4790 
Q 1409 4922 1816 4922 
Q 2472 4922 2872 4570 
Q 3272 4219 3272 3619 
Q 3272 3084 3026 2693 
Q 2781 2303 2188 1894 
Q 1581 1475 1376 1294 
Q 1172 1113 1090 947 
Q 1009 781 1009 544 
L 3416 544 
L 3416 0 
L 372 0 
L 372 241 
Q 372 659 486 951 
Q 600 1244 862 1520 
Q 1125 1797 1681 2184 
Q 2250 2584 2458 2886 
Q 2666 3188 2666 3572 
z
" transform="scale(0.015625)"/>
        <path id="MicrosoftYaHei-73" d="M 353 747 
Q 816 413 1350 413 
Q 2066 413 2066 881 
Q 2066 1081 1909 1211 
Q 1753 1341 1275 1519 
Q 700 1750 528 1976 
Q 356 2203 356 2525 
Q 356 2984 745 3261 
Q 1134 3538 1703 3538 
Q 2144 3538 2522 3384 
L 2522 2794 
Q 2134 3044 1644 3044 
Q 1350 3044 1165 2916 
Q 981 2788 981 2578 
Q 981 2372 1114 2256 
Q 1247 2141 1703 1959 
Q 2281 1744 2484 1512 
Q 2688 1281 2688 941 
Q 2688 466 2298 192 
Q 1909 -81 1291 -81 
Q 753 -81 353 122 
L 353 747 
z
" transform="scale(0.015625)"/>
       </defs>
       <use xlink:href="#MicrosoftYaHei-74"/>
       <use xlink:href="#MicrosoftYaHei-63" transform="translate(35.880859 0)"/>
       <use xlink:href="#MicrosoftYaHei-6e" transform="translate(86.027344 0)"/>
       <use xlink:href="#MicrosoftYaHei-5f" transform="translate(147.648438 0)"/>
       <use xlink:href="#MicrosoftYaHei-77" transform="translate(192.472656 0)"/>
       <use xlink:href="#MicrosoftYaHei-69" transform="translate(271.427734 0)"/>
       <use xlink:href="#MicrosoftYaHei-6e" transform="translate(298.039062 0)"/>
       <use xlink:href="#MicrosoftYaHei-64" transform="translate(359.660156 0)"/>
       <use xlink:href="#MicrosoftYaHei-6f" transform="translate(423.625 0)"/>
       <use xlink:href="#MicrosoftYaHei-77" transform="translate(487.199219 0)"/>
       <use xlink:href="#MicrosoftYaHei-5f" transform="translate(566.154297 0)"/>
       <use xlink:href="#MicrosoftYaHei-32" transform="translate(610.978516 0)"/>
       <use xlink:href="#MicrosoftYaHei-73" transform="translate(669.621094 0)"/>
      </g>
     </g>
    </g>
    <g id="xtick_2">
     <g id="line2d_3">
      <path d="M 154.474611 295.561549 
L 154.474611 26.88 
" clip-path="url(#p65860797d6)" style="fill: none; stroke: #b0b0b0; stroke-opacity: 0.25; stroke-width: 0.8; stroke-linecap: square"/>
     </g>
     <g id="line2d_4">
      <g>
       <use xlink:href="#m7694b0c436" x="154.474611" y="295.561549" style="stroke: #000000; stroke-width: 0.8"/>
      </g>
     </g>
     <g id="text_2">
      <!-- tcn_window_4s -->
      <g transform="translate(88.511057 340.062513) rotate(-25) scale(0.1 -0.1)">
       <defs>
        <path id="MicrosoftYaHei-34" d="M 2906 4841 
L 2906 1644 
L 3631 1644 
L 3631 1138 
L 2906 1138 
L 2906 0 
L 2313 0 
L 2313 1138 
L 53 1138 
L 53 1616 
Q 656 2294 1265 3178 
Q 1875 4063 2272 4841 
L 2906 4841 
z
M 741 1644 
L 2313 1644 
L 2313 3950 
Q 1988 3366 1616 2817 
Q 1244 2269 741 1644 
z
" transform="scale(0.015625)"/>
       </defs>
       <use xlink:href="#MicrosoftYaHei-74"/>
       <use xlink:href="#MicrosoftYaHei-63" transform="translate(35.880859 0)"/>
       <use xlink:href="#MicrosoftYaHei-6e" transform="translate(86.027344 0)"/>
       <use xlink:href="#MicrosoftYaHei-5f" transform="translate(147.648438 0)"/>
       <use xlink:href="#MicrosoftYaHei-77" transform="translate(192.472656 0)"/>
       <use xlink:href="#MicrosoftYaHei-69" transform="translate(271.427734 0)"/>
       <use xlink:href="#MicrosoftYaHei-6e" transform="translate(298.039062 0)"/>
       <use xlink:href="#MicrosoftYaHei-64" transform="translate(359.660156 0)"/>
       <use xlink:href="#MicrosoftYaHei-6f" transform="translate(423.625 0)"/>
       <use xlink:href="#MicrosoftYaHei-77" transform="translate(487.199219 0)"/>
       <use xlink:href="#MicrosoftYaHei-5f" transform="translate(566.154297 0)"/>
       <use xlink:href="#MicrosoftYaHei-34" transform="translate(610.978516 0)"/>
       <use xlink:href="#MicrosoftYaHei-73" transform="translate(669.621094 0)"/>
      </g>
     </g>
    </g>
    <g id="xtick_3">
     <g id="line2d_5">
      <path d="M 217.261865 295.561549 
L 217.261865 26.88 
" clip-path="url(#p65860797d6)" style="fill: none; stroke: #b0b0b0; stroke-opacity: 0.25; stroke-width: 0.8; stroke-linecap: square"/>
     </g>
     <g id="line2d_6">
      <g>
       <use xlink:href="#m7694b0c436" x="217.261865" y="295.561549" style="stroke: #000000; stroke-width: 0.8"/>
      </g>
     </g>
     <g id="text_3">
      <!-- tcn_window_0.5s -->
      <g transform="translate(143.801446 343.558358) rotate(-25) scale(0.1 -0.1)">
       <defs>
        <path id="MicrosoftYaHei-30" d="M 284 2325 
Q 284 3606 709 4264 
Q 1134 4922 1941 4922 
Q 3478 4922 3478 2441 
Q 3478 1216 3045 567 
Q 2613 -81 1831 -81 
Q 1094 -81 689 534 
Q 284 1150 284 2325 
z
M 909 2353 
Q 909 425 1888 425 
Q 2850 425 2850 2384 
Q 2850 4413 1906 4413 
Q 909 4413 909 2353 
z
" transform="scale(0.015625)"/>
        <path id="MicrosoftYaHei-2e" d="M 372 322 
Q 372 491 487 606 
Q 603 722 775 722 
Q 950 722 1065 605 
Q 1181 488 1181 322 
Q 1181 159 1065 42 
Q 950 -75 772 -75 
Q 600 -75 486 42 
Q 372 159 372 322 
z
" transform="scale(0.015625)"/>
        <path id="MicrosoftYaHei-35" d="M 3294 1494 
Q 3294 784 2823 350 
Q 2353 -84 1559 -84 
Q 878 -84 544 119 
L 544 744 
Q 1034 425 1544 425 
Q 2050 425 2361 704 
Q 2672 984 2672 1447 
Q 2672 1909 2348 2167 
Q 2025 2425 1434 2425 
Q 978 2425 613 2384 
L 791 4841 
L 3053 4841 
L 3053 4303 
L 1306 4303 
L 1206 2931 
L 1647 2950 
Q 2416 2950 2855 2567 
Q 3294 2184 3294 1494 
z
" transform="scale(0.015625)"/>
       </defs>
       <use xlink:href="#MicrosoftYaHei-74"/>
       <use xlink:href="#MicrosoftYaHei-63" transform="translate(35.880859 0)"/>
       <use xlink:href="#MicrosoftYaHei-6e" transform="translate(86.027344 0)"/>
       <use xlink:href="#MicrosoftYaHei-5f" transform="translate(147.648438 0)"/>
       <use xlink:href="#MicrosoftYaHei-77" transform="translate(192.472656 0)"/>
       <use xlink:href="#MicrosoftYaHei-69" transform="translate(271.427734 0)"/>
       <use xlink:href="#MicrosoftYaHei-6e" transform="translate(298.039062 0)"/>
       <use xlink:href="#MicrosoftYaHei-64" transform="translate(359.660156 0)"/>
       <use xlink:href="#MicrosoftYaHei-6f" transform="translate(423.625 0)"/>
       <use xlink:href="#MicrosoftYaHei-77" transform="translate(487.199219 0)"/>
       <use xlink:href="#MicrosoftYaHei-5f" transform="translate(566.154297 0)"/>
       <use xlink:href="#MicrosoftYaHei-30" transform="translate(610.978516 0)"/>
       <use xlink:href="#MicrosoftYaHei-2e" transform="translate(669.621094 0)"/>
       <use xlink:href="#MicrosoftYaHei-35" transform="translate(693.693359 0)"/>
       <use xlink:href="#MicrosoftYaHei-73" transform="translate(752.335938 0)"/>
      </g>
     </g>
    </g>
    <g id="xtick_4">
     <g id="line2d_7">
      <path d="M 280.049119 295.561549 
L 280.049119 26.88 
" clip-path="url(#p65860797d6)" style="fill: none; stroke: #b0b0b0; stroke-opacity: 0.25; stroke-width: 0.8; stroke-linecap: square"/>
     </g>
     <g id="line2d_8">
      <g>
       <use xlink:href="#m7694b0c436" x="280.049119" y="295.561549" style="stroke: #000000; stroke-width: 0.8"/>
      </g>
     </g>
     <g id="text_4">
      <!-- tcn_window_12s -->
      <g transform="translate(208.770919 342.540773) rotate(-25) scale(0.1 -0.1)">
       <defs>
        <path id="MicrosoftYaHei-31" d="M 1781 0 
L 1781 4141 
Q 1638 3997 1295 3819 
Q 953 3641 663 3569 
L 663 4169 
Q 1047 4275 1484 4508 
Q 1922 4741 2156 4947 
L 2388 4947 
L 2388 0 
L 1781 0 
z
" transform="scale(0.015625)"/>
       </defs>
       <use xlink:href="#MicrosoftYaHei-74"/>
       <use xlink:href="#MicrosoftYaHei-63" transform="translate(35.880859 0)"/>
       <use xlink:href="#MicrosoftYaHei-6e" transform="translate(86.027344 0)"/>
       <use xlink:href="#MicrosoftYaHei-5f" transform="translate(147.648438 0)"/>
       <use xlink:href="#MicrosoftYaHei-77" transform="translate(192.472656 0)"/>
       <use xlink:href="#MicrosoftYaHei-69" transform="translate(271.427734 0)"/>
       <use xlink:href="#MicrosoftYaHei-6e" transform="translate(298.039062 0)"/>
       <use xlink:href="#MicrosoftYaHei-64" transform="translate(359.660156 0)"/>
       <use xlink:href="#MicrosoftYaHei-6f" transform="translate(423.625 0)"/>
       <use xlink:href="#MicrosoftYaHei-77" transform="translate(487.199219 0)"/>
       <use xlink:href="#MicrosoftYaHei-5f" transform="translate(566.154297 0)"/>
       <use xlink:href="#MicrosoftYaHei-31" transform="translate(610.978516 0)"/>
       <use xlink:href="#MicrosoftYaHei-32" transform="translate(669.621094 0)"/>
       <use xlink:href="#MicrosoftYaHei-73" transform="translate(728.263672 0)"/>
      </g>
     </g>
    </g>
    <g id="xtick_5">
     <g id="line2d_9">
      <path d="M 342.836373 295.561549 
L 342.836373 26.88 
" clip-path="url(#p65860797d6)" style="fill: none; stroke: #b0b0b0; stroke-opacity: 0.25; stroke-width: 0.8; stroke-linecap: square"/>
     </g>
     <g id="line2d_10">
      <g>
       <use xlink:href="#m7694b0c436" x="342.836373" y="295.561549" style="stroke: #000000; stroke-width: 0.8"/>
      </g>
     </g>
     <g id="text_5">
      <!-- tcn_window_6s -->
      <g transform="translate(276.872819 340.062513) rotate(-25) scale(0.1 -0.1)">
       <defs>
        <path id="MicrosoftYaHei-36" d="M 3181 4219 
Q 2803 4413 2391 4413 
Q 1763 4413 1381 3866 
Q 1000 3319 994 2372 
L 1009 2372 
Q 1353 3038 2106 3038 
Q 2734 3038 3109 2628 
Q 3484 2219 3484 1541 
Q 3484 831 3051 375 
Q 2619 -81 1947 -81 
Q 1209 -81 789 495 
Q 369 1072 369 2131 
Q 369 3413 920 4167 
Q 1472 4922 2372 4922 
Q 2888 4922 3181 4781 
L 3181 4219 
z
M 1031 1584 
Q 1031 1106 1286 765 
Q 1541 425 1963 425 
Q 2363 425 2613 719 
Q 2863 1013 2863 1475 
Q 2863 1975 2627 2253 
Q 2391 2531 1956 2531 
Q 1544 2531 1287 2250 
Q 1031 1969 1031 1584 
z
" transform="scale(0.015625)"/>
       </defs>
       <use xlink:href="#MicrosoftYaHei-74"/>
       <use xlink:href="#MicrosoftYaHei-63" transform="translate(35.880859 0)"/>
       <use xlink:href="#MicrosoftYaHei-6e" transform="translate(86.027344 0)"/>
       <use xlink:href="#MicrosoftYaHei-5f" transform="translate(147.648438 0)"/>
       <use xlink:href="#MicrosoftYaHei-77" transform="translate(192.472656 0)"/>
       <use xlink:href="#MicrosoftYaHei-69" transform="translate(271.427734 0)"/>
       <use xlink:href="#MicrosoftYaHei-6e" transform="translate(298.039062 0)"/>
       <use xlink:href="#MicrosoftYaHei-64" transform="translate(359.660156 0)"/>
       <use xlink:href="#MicrosoftYaHei-6f" transform="translate(423.625 0)"/>
       <use xlink:href="#MicrosoftYaHei-77" transform="translate(487.199219 0)"/>
       <use xlink:href="#MicrosoftYaHei-5f" transform="translate(566.154297 0)"/>
       <use xlink:href="#MicrosoftYaHei-36" transform="translate(610.978516 0)"/>
       <use xlink:href="#MicrosoftYaHei-73" transform="translate(669.621094 0)"/>
      </g>
     </g>
    </g>
    <g id="xtick_6">
     <g id="line2d_11">
      <path d="M 405.623627 295.561549 
L 405.623627 26.88 
" clip-path="url(#p65860797d6)" style="fill: none; stroke: #b0b0b0; stroke-opacity: 0.25; stroke-width: 0.8; stroke-linecap: square"/>
     </g>
     <g id="line2d_12">
      <g>
       <use xlink:href="#m7694b0c436" x="405.623627" y="295.561549" style="stroke: #000000; stroke-width: 0.8"/>
      </g>
     </g>
     <g id="text_6">
      <!-- tcn_window_1s -->
      <g transform="translate(339.660073 340.062513) rotate(-25) scale(0.1 -0.1)">
       <use xlink:href="#MicrosoftYaHei-74"/>
       <use xlink:href="#MicrosoftYaHei-63" transform="translate(35.880859 0)"/>
       <use xlink:href="#MicrosoftYaHei-6e" transform="translate(86.027344 0)"/>
       <use xlink:href="#MicrosoftYaHei-5f" transform="translate(147.648438 0)"/>
       <use xlink:href="#MicrosoftYaHei-77" transform="translate(192.472656 0)"/>
       <use xlink:href="#MicrosoftYaHei-69" transform="translate(271.427734 0)"/>
       <use xlink:href="#MicrosoftYaHei-6e" transform="translate(298.039062 0)"/>
       <use xlink:href="#MicrosoftYaHei-64" transform="translate(359.660156 0)"/>
       <use xlink:href="#MicrosoftYaHei-6f" transform="translate(423.625 0)"/>
       <use xlink:href="#MicrosoftYaHei-77" transform="translate(487.199219 0)"/>
       <use xlink:href="#MicrosoftYaHei-5f" transform="translate(566.154297 0)"/>
       <use xlink:href="#MicrosoftYaHei-31" transform="translate(610.978516 0)"/>
       <use xlink:href="#MicrosoftYaHei-73" transform="translate(669.621094 0)"/>
      </g>
     </g>
    </g>
    <g id="xtick_7">
     <g id="line2d_13">
      <path d="M 468.410881 295.561549 
L 468.410881 26.88 
" clip-path="url(#p65860797d6)" style="fill: none; stroke: #b0b0b0; stroke-opacity: 0.25; stroke-width: 0.8; stroke-linecap: square"/>
     </g>
     <g id="line2d_14">
      <g>
       <use xlink:href="#m7694b0c436" x="468.410881" y="295.561549" style="stroke: #000000; stroke-width: 0.8"/>
      </g>
     </g>
     <g id="text_7">
      <!-- tcn_window_8s -->
      <g transform="translate(402.447327 340.062513) rotate(-25) scale(0.1 -0.1)">
       <defs>
        <path id="MicrosoftYaHei-38" d="M 306 1350 
Q 306 1769 556 2122 
Q 806 2475 1200 2625 
Q 884 2803 700 3081 
Q 516 3359 516 3684 
Q 516 4028 692 4312 
Q 869 4597 1183 4759 
Q 1497 4922 1875 4922 
Q 2256 4922 2572 4761 
Q 2888 4600 3063 4315 
Q 3238 4031 3238 3684 
Q 3238 3366 3058 3086 
Q 2878 2806 2559 2625 
Q 2953 2472 3200 2119 
Q 3447 1766 3447 1350 
Q 3447 938 3250 611 
Q 3053 284 2690 103 
Q 2328 -78 1875 -78 
Q 1425 -78 1065 103 
Q 706 284 506 612 
Q 306 941 306 1350 
z
M 906 1378 
Q 906 947 1172 687 
Q 1438 428 1878 428 
Q 2309 428 2582 692 
Q 2856 956 2856 1378 
Q 2856 1778 2579 2051 
Q 2303 2325 1878 2325 
Q 1456 2325 1181 2058 
Q 906 1791 906 1378 
z
M 1081 3634 
Q 1081 3309 1312 3076 
Q 1544 2844 1878 2844 
Q 2206 2844 2445 3078 
Q 2684 3313 2684 3634 
Q 2684 3963 2454 4191 
Q 2225 4419 1878 4419 
Q 1534 4419 1307 4195 
Q 1081 3972 1081 3634 
z
" transform="scale(0.015625)"/>
       </defs>
       <use xlink:href="#MicrosoftYaHei-74"/>
       <use xlink:href="#MicrosoftYaHei-63" transform="translate(35.880859 0)"/>
       <use xlink:href="#MicrosoftYaHei-6e" transform="translate(86.027344 0)"/>
       <use xlink:href="#MicrosoftYaHei-5f" transform="translate(147.648438 0)"/>
       <use xlink:href="#MicrosoftYaHei-77" transform="translate(192.472656 0)"/>
       <use xlink:href="#MicrosoftYaHei-69" transform="translate(271.427734 0)"/>
       <use xlink:href="#MicrosoftYaHei-6e" transform="translate(298.039062 0)"/>
       <use xlink:href="#MicrosoftYaHei-64" transform="translate(359.660156 0)"/>
       <use xlink:href="#MicrosoftYaHei-6f" transform="translate(423.625 0)"/>
       <use xlink:href="#MicrosoftYaHei-77" transform="translate(487.199219 0)"/>
       <use xlink:href="#MicrosoftYaHei-5f" transform="translate(566.154297 0)"/>
       <use xlink:href="#MicrosoftYaHei-38" transform="translate(610.978516 0)"/>
       <use xlink:href="#MicrosoftYaHei-73" transform="translate(669.621094 0)"/>
      </g>
     </g>
    </g>
    <g id="xtick_8">
     <g id="line2d_15">
      <path d="M 531.198135 295.561549 
L 531.198135 26.88 
" clip-path="url(#p65860797d6)" style="fill: none; stroke: #b0b0b0; stroke-opacity: 0.25; stroke-width: 0.8; stroke-linecap: square"/>
     </g>
     <g id="line2d_16">
      <g>
       <use xlink:href="#m7694b0c436" x="531.198135" y="295.561549" style="stroke: #000000; stroke-width: 0.8"/>
      </g>
     </g>
     <g id="text_8">
      <!-- tcn_window_16s -->
      <g transform="translate(459.919935 342.540773) rotate(-25) scale(0.1 -0.1)">
       <use xlink:href="#MicrosoftYaHei-74"/>
       <use xlink:href="#MicrosoftYaHei-63" transform="translate(35.880859 0)"/>
       <use xlink:href="#MicrosoftYaHei-6e" transform="translate(86.027344 0)"/>
       <use xlink:href="#MicrosoftYaHei-5f" transform="translate(147.648438 0)"/>
       <use xlink:href="#MicrosoftYaHei-77" transform="translate(192.472656 0)"/>
       <use xlink:href="#MicrosoftYaHei-69" transform="translate(271.427734 0)"/>
       <use xlink:href="#MicrosoftYaHei-6e" transform="translate(298.039062 0)"/>
       <use xlink:href="#MicrosoftYaHei-64" transform="translate(359.660156 0)"/>
       <use xlink:href="#MicrosoftYaHei-6f" transform="translate(423.625 0)"/>
       <use xlink:href="#MicrosoftYaHei-77" transform="translate(487.199219 0)"/>
       <use xlink:href="#MicrosoftYaHei-5f" transform="translate(566.154297 0)"/>
       <use xlink:href="#MicrosoftYaHei-31" transform="translate(610.978516 0)"/>
       <use xlink:href="#MicrosoftYaHei-36" transform="translate(669.621094 0)"/>
       <use xlink:href="#MicrosoftYaHei-73" transform="translate(728.263672 0)"/>
      </g>
     </g>
    </g>
    <g id="xtick_9">
     <g id="line2d_17">
      <path d="M 593.985389 295.561549 
L 593.985389 26.88 
" clip-path="url(#p65860797d6)" style="fill: none; stroke: #b0b0b0; stroke-opacity: 0.25; stroke-width: 0.8; stroke-linecap: square"/>
     </g>
     <g id="line2d_18">
      <g>
       <use xlink:href="#m7694b0c436" x="593.985389" y="295.561549" style="stroke: #000000; stroke-width: 0.8"/>
      </g>
     </g>
     <g id="text_9">
      <!-- tcn_window_10s -->
      <g transform="translate(522.707189 342.540773) rotate(-25) scale(0.1 -0.1)">
       <use xlink:href="#MicrosoftYaHei-74"/>
       <use xlink:href="#MicrosoftYaHei-63" transform="translate(35.880859 0)"/>
       <use xlink:href="#MicrosoftYaHei-6e" transform="translate(86.027344 0)"/>
       <use xlink:href="#MicrosoftYaHei-5f" transform="translate(147.648438 0)"/>
       <use xlink:href="#MicrosoftYaHei-77" transform="translate(192.472656 0)"/>
       <use xlink:href="#MicrosoftYaHei-69" transform="translate(271.427734 0)"/>
       <use xlink:href="#MicrosoftYaHei-6e" transform="translate(298.039062 0)"/>
       <use xlink:href="#MicrosoftYaHei-64" transform="translate(359.660156 0)"/>
       <use xlink:href="#MicrosoftYaHei-6f" transform="translate(423.625 0)"/>
       <use xlink:href="#MicrosoftYaHei-77" transform="translate(487.199219 0)"/>
       <use xlink:href="#MicrosoftYaHei-5f" transform="translate(566.154297 0)"/>
       <use xlink:href="#MicrosoftYaHei-31" transform="translate(610.978516 0)"/>
       <use xlink:href="#MicrosoftYaHei-30" transform="translate(669.621094 0)"/>
       <use xlink:href="#MicrosoftYaHei-73" transform="translate(728.263672 0)"/>
      </g>
     </g>
    </g>
    <g id="xtick_10">
     <g id="line2d_19">
      <path d="M 656.772643 295.561549 
L 656.772643 26.88 
" clip-path="url(#p65860797d6)" style="fill: none; stroke: #b0b0b0; stroke-opacity: 0.25; stroke-width: 0.8; stroke-linecap: square"/>
     </g>
     <g id="line2d_20">
      <g>
       <use xlink:href="#m7694b0c436" x="656.772643" y="295.561549" style="stroke: #000000; stroke-width: 0.8"/>
      </g>
     </g>
     <g id="text_10">
      <!-- tcn_window_0.25s -->
      <g transform="translate(577.997578 346.036618) rotate(-25) scale(0.1 -0.1)">
       <use xlink:href="#MicrosoftYaHei-74"/>
       <use xlink:href="#MicrosoftYaHei-63" transform="translate(35.880859 0)"/>
       <use xlink:href="#MicrosoftYaHei-6e" transform="translate(86.027344 0)"/>
       <use xlink:href="#MicrosoftYaHei-5f" transform="translate(147.648438 0)"/>
       <use xlink:href="#MicrosoftYaHei-77" transform="translate(192.472656 0)"/>
       <use xlink:href="#MicrosoftYaHei-69" transform="translate(271.427734 0)"/>
       <use xlink:href="#MicrosoftYaHei-6e" transform="translate(298.039062 0)"/>
       <use xlink:href="#MicrosoftYaHei-64" transform="translate(359.660156 0)"/>
       <use xlink:href="#MicrosoftYaHei-6f" transform="translate(423.625 0)"/>
       <use xlink:href="#MicrosoftYaHei-77" transform="translate(487.199219 0)"/>
       <use xlink:href="#MicrosoftYaHei-5f" transform="translate(566.154297 0)"/>
       <use xlink:href="#MicrosoftYaHei-30" transform="translate(610.978516 0)"/>
       <use xlink:href="#MicrosoftYaHei-2e" transform="translate(669.621094 0)"/>
       <use xlink:href="#MicrosoftYaHei-32" transform="translate(693.693359 0)"/>
       <use xlink:href="#MicrosoftYaHei-35" transform="translate(752.335938 0)"/>
       <use xlink:href="#MicrosoftYaHei-73" transform="translate(810.978516 0)"/>
      </g>
     </g>
    </g>
   </g>
   <g id="matplotlib.axis_2">
    <g id="ytick_1">
     <g id="line2d_21">
      <path d="M 39.26 295.561549 
L 709.2 295.561549 
" clip-path="url(#p65860797d6)" style="fill: none; stroke: #b0b0b0; stroke-opacity: 0.25; stroke-width: 0.8; stroke-linecap: square"/>
     </g>
     <g id="line2d_22">
      <defs>
       <path id="m3d705f8730" d="M 0 0 
L -3.5 0 
" style="stroke: #000000; stroke-width: 0.8"/>
      </defs>
      <g>
       <use xlink:href="#m3d705f8730" x="39.26" y="295.561549" style="stroke: #000000; stroke-width: 0.8"/>
      </g>
     </g>
     <g id="text_11">
      <!-- 0 -->
      <g transform="translate(26.395938 299.558424) scale(0.1 -0.1)">
       <use xlink:href="#MicrosoftYaHei-30"/>
      </g>
     </g>
    </g>
    <g id="ytick_2">
     <g id="line2d_23">
      <path d="M 39.26 265.66201 
L 709.2 265.66201 
" clip-path="url(#p65860797d6)" style="fill: none; stroke: #b0b0b0; stroke-opacity: 0.25; stroke-width: 0.8; stroke-linecap: square"/>
     </g>
     <g id="line2d_24">
      <g>
       <use xlink:href="#m3d705f8730" x="39.26" y="265.66201" style="stroke: #000000; stroke-width: 0.8"/>
      </g>
     </g>
     <g id="text_12">
      <!-- 1 -->
      <g transform="translate(26.395938 269.658885) scale(0.1 -0.1)">
       <use xlink:href="#MicrosoftYaHei-31"/>
      </g>
     </g>
    </g>
    <g id="ytick_3">
     <g id="line2d_25">
      <path d="M 39.26 235.762472 
L 709.2 235.762472 
" clip-path="url(#p65860797d6)" style="fill: none; stroke: #b0b0b0; stroke-opacity: 0.25; stroke-width: 0.8; stroke-linecap: square"/>
     </g>
     <g id="line2d_26">
      <g>
       <use xlink:href="#m3d705f8730" x="39.26" y="235.762472" style="stroke: #000000; stroke-width: 0.8"/>
      </g>
     </g>
     <g id="text_13">
      <!-- 2 -->
      <g transform="translate(26.395938 239.759347) scale(0.1 -0.1)">
       <use xlink:href="#MicrosoftYaHei-32"/>
      </g>
     </g>
    </g>
    <g id="ytick_4">
     <g id="line2d_27">
      <path d="M 39.26 205.862933 
L 709.2 205.862933 
" clip-path="url(#p65860797d6)" style="fill: none; stroke: #b0b0b0; stroke-opacity: 0.25; stroke-width: 0.8; stroke-linecap: square"/>
     </g>
     <g id="line2d_28">
      <g>
       <use xlink:href="#m3d705f8730" x="39.26" y="205.862933" style="stroke: #000000; stroke-width: 0.8"/>
      </g>
     </g>
     <g id="text_14">
      <!-- 3 -->
      <g transform="translate(26.395938 209.859808) scale(0.1 -0.1)">
       <defs>
        <path id="MicrosoftYaHei-33" d="M 447 809 
Q 944 425 1569 425 
Q 2069 425 2361 670 
Q 2653 916 2653 1328 
Q 2653 2247 1338 2247 
L 934 2247 
L 934 2753 
L 1319 2753 
Q 2484 2753 2484 3616 
Q 2484 4413 1594 4413 
Q 1084 4413 634 4069 
L 634 4647 
Q 1109 4922 1744 4922 
Q 2363 4922 2738 4598 
Q 3113 4275 3113 3759 
Q 3113 2809 2144 2538 
L 2144 2525 
Q 2669 2469 2973 2155 
Q 3278 1841 3278 1372 
Q 3278 719 2808 319 
Q 2338 -81 1556 -81 
Q 869 -81 447 175 
L 447 809 
z
" transform="scale(0.015625)"/>
       </defs>
       <use xlink:href="#MicrosoftYaHei-33"/>
      </g>
     </g>
    </g>
    <g id="ytick_5">
     <g id="line2d_29">
      <path d="M 39.26 175.963394 
L 709.2 175.963394 
" clip-path="url(#p65860797d6)" style="fill: none; stroke: #b0b0b0; stroke-opacity: 0.25; stroke-width: 0.8; stroke-linecap: square"/>
     </g>
     <g id="line2d_30">
      <g>
       <use xlink:href="#m3d705f8730" x="39.26" y="175.963394" style="stroke: #000000; stroke-width: 0.8"/>
      </g>
     </g>
     <g id="text_15">
      <!-- 4 -->
      <g transform="translate(26.395938 179.960269) scale(0.1 -0.1)">
       <use xlink:href="#MicrosoftYaHei-34"/>
      </g>
     </g>
    </g>
    <g id="ytick_6">
     <g id="line2d_31">
      <path d="M 39.26 146.063856 
L 709.2 146.063856 
" clip-path="url(#p65860797d6)" style="fill: none; stroke: #b0b0b0; stroke-opacity: 0.25; stroke-width: 0.8; stroke-linecap: square"/>
     </g>
     <g id="line2d_32">
      <g>
       <use xlink:href="#m3d705f8730" x="39.26" y="146.063856" style="stroke: #000000; stroke-width: 0.8"/>
      </g>
     </g>
     <g id="text_16">
      <!-- 5 -->
      <g transform="translate(26.395938 150.060731) scale(0.1 -0.1)">
       <use xlink:href="#MicrosoftYaHei-35"/>
      </g>
     </g>
    </g>
    <g id="ytick_7">
     <g id="line2d_33">
      <path d="M 39.26 116.164317 
L 709.2 116.164317 
" clip-path="url(#p65860797d6)" style="fill: none; stroke: #b0b0b0; stroke-opacity: 0.25; stroke-width: 0.8; stroke-linecap: square"/>
     </g>
     <g id="line2d_34">
      <g>
       <use xlink:href="#m3d705f8730" x="39.26" y="116.164317" style="stroke: #000000; stroke-width: 0.8"/>
      </g>
     </g>
     <g id="text_17">
      <!-- 6 -->
      <g transform="translate(26.395938 120.161192) scale(0.1 -0.1)">
       <use xlink:href="#MicrosoftYaHei-36"/>
      </g>
     </g>
    </g>
    <g id="ytick_8">
     <g id="line2d_35">
      <path d="M 39.26 86.264778 
L 709.2 86.264778 
" clip-path="url(#p65860797d6)" style="fill: none; stroke: #b0b0b0; stroke-opacity: 0.25; stroke-width: 0.8; stroke-linecap: square"/>
     </g>
     <g id="line2d_36">
      <g>
       <use xlink:href="#m3d705f8730" x="39.26" y="86.264778" style="stroke: #000000; stroke-width: 0.8"/>
      </g>
     </g>
     <g id="text_18">
      <!-- 7 -->
      <g transform="translate(26.395938 90.261653) scale(0.1 -0.1)">
       <defs>
        <path id="MicrosoftYaHei-37" d="M 3422 4463 
Q 2659 3131 2223 1998 
Q 1788 866 1684 0 
L 1047 0 
Q 1163 853 1594 1947 
Q 2025 3041 2747 4300 
L 347 4300 
L 347 4841 
L 3422 4841 
L 3422 4463 
z
" transform="scale(0.015625)"/>
       </defs>
       <use xlink:href="#MicrosoftYaHei-37"/>
      </g>
     </g>
    </g>
    <g id="ytick_9">
     <g id="line2d_37">
      <path d="M 39.26 56.36524 
L 709.2 56.36524 
" clip-path="url(#p65860797d6)" style="fill: none; stroke: #b0b0b0; stroke-opacity: 0.25; stroke-width: 0.8; stroke-linecap: square"/>
     </g>
     <g id="line2d_38">
      <g>
       <use xlink:href="#m3d705f8730" x="39.26" y="56.36524" style="stroke: #000000; stroke-width: 0.8"/>
      </g>
     </g>
     <g id="text_19">
      <!-- 8 -->
      <g transform="translate(26.395938 60.362115) scale(0.1 -0.1)">
       <use xlink:href="#MicrosoftYaHei-38"/>
      </g>
     </g>
    </g>
    <g id="text_20">
     <!-- WAPE (%) -->
     <g transform="translate(19.91 184.710618) rotate(-90) scale(0.1 -0.1)">
      <defs>
       <path id="MicrosoftYaHei-57" d="M 6431 4841 
L 5075 0 
L 4347 0 
L 3372 3488 
Q 3306 3725 3294 3988 
L 3281 3988 
Q 3263 3728 3194 3494 
L 2209 0 
L 1488 0 
L 84 4841 
L 775 4841 
L 1763 1184 
Q 1828 938 1841 688 
L 1859 688 
Q 1875 875 1963 1184 
L 3009 4841 
L 3625 4841 
L 4625 1156 
Q 4675 975 4706 694 
L 4719 694 
Q 4734 897 4809 1169 
L 5759 4841 
L 6431 4841 
z
" transform="scale(0.015625)"/>
       <path id="MicrosoftYaHei-41" d="M 4428 0 
L 3738 0 
L 3244 1325 
L 1228 1325 
L 763 0 
L 72 0 
L 1916 4841 
L 2584 4841 
L 4428 0 
z
M 3050 1872 
L 2319 3884 
Q 2284 3981 2244 4222 
L 2228 4222 
Q 2194 4003 2150 3884 
L 1425 1872 
L 3050 1872 
z
" transform="scale(0.015625)"/>
       <path id="MicrosoftYaHei-50" d="M 1250 1809 
L 1250 0 
L 625 0 
L 625 4841 
L 2000 4841 
Q 2784 4841 3217 4462 
Q 3650 4084 3650 3381 
Q 3650 2669 3144 2226 
Q 2638 1784 1878 1809 
L 1250 1809 
z
M 1250 4291 
L 1250 2359 
L 1828 2359 
Q 2400 2359 2697 2617 
Q 2994 2875 2994 3356 
Q 2994 4291 1888 4291 
L 1250 4291 
z
" transform="scale(0.015625)"/>
       <path id="MicrosoftYaHei-45" d="M 3228 0 
L 625 0 
L 625 4841 
L 3119 4841 
L 3119 4284 
L 1250 4284 
L 1250 2734 
L 2981 2734 
L 2981 2181 
L 1250 2181 
L 1250 553 
L 3228 553 
L 3228 0 
z
" transform="scale(0.015625)"/>
       <path id="MicrosoftYaHei-20" transform="scale(0.015625)"/>
       <path id="MicrosoftYaHei-28" d="M 1531 -1100 
Q 478 100 478 1847 
Q 478 3594 1531 4841 
L 2072 4841 
Q 1016 3544 1016 1853 
Q 1016 166 2066 -1100 
L 1531 -1100 
z
" transform="scale(0.015625)"/>
       <path id="MicrosoftYaHei-25" d="M 272 3619 
Q 272 4213 589 4563 
Q 906 4913 1444 4913 
Q 1959 4913 2248 4591 
Q 2538 4269 2538 3694 
Q 2538 3122 2219 2765 
Q 1900 2409 1372 2409 
Q 872 2409 572 2740 
Q 272 3072 272 3619 
z
M 753 3650 
Q 753 3247 928 3028 
Q 1103 2809 1406 2809 
Q 1719 2809 1889 3036 
Q 2059 3263 2059 3675 
Q 2059 4078 1892 4298 
Q 1725 4519 1422 4519 
Q 1113 4519 933 4289 
Q 753 4059 753 3650 
z
M 4647 4841 
L 1538 -31 
L 1016 -31 
L 4125 4841 
L 4647 4841 
z
M 3172 1134 
Q 3172 1728 3489 2083 
Q 3806 2438 4341 2438 
Q 4853 2438 5143 2114 
Q 5434 1791 5434 1203 
Q 5434 634 5112 279 
Q 4791 -75 4272 -75 
Q 3769 -75 3470 261 
Q 3172 597 3172 1134 
z
M 3650 1163 
Q 3650 769 3825 548 
Q 4000 328 4303 328 
Q 4616 328 4786 556 
Q 4956 784 4956 1194 
Q 4956 1600 4786 1815 
Q 4616 2031 4319 2031 
Q 4000 2031 3825 1801 
Q 3650 1572 3650 1163 
z
" transform="scale(0.015625)"/>
       <path id="MicrosoftYaHei-29" d="M 78 -1100 
Q 1131 163 1131 1853 
Q 1131 3547 72 4841 
L 616 4841 
Q 1672 3603 1672 1847 
Q 1672 91 616 -1100 
L 78 -1100 
z
" transform="scale(0.015625)"/>
      </defs>
      <use xlink:href="#MicrosoftYaHei-57"/>
      <use xlink:href="#MicrosoftYaHei-41" transform="translate(97.882812 0)"/>
      <use xlink:href="#MicrosoftYaHei-50" transform="translate(168.244141 0)"/>
      <use xlink:href="#MicrosoftYaHei-45" transform="translate(229.425781 0)"/>
      <use xlink:href="#MicrosoftYaHei-20" transform="translate(284.40625 0)"/>
      <use xlink:href="#MicrosoftYaHei-28" transform="translate(313.996094 0)"/>
      <use xlink:href="#MicrosoftYaHei-25" transform="translate(347.394531 0)"/>
      <use xlink:href="#MicrosoftYaHei-29" transform="translate(436.359375 0)"/>
     </g>
    </g>
   </g>
   <g id="patch_23">
    <path d="M 39.26 295.561549 
L 39.26 26.88 
" style="fill: none; stroke: #000000; stroke-width: 0.8; stroke-linejoin: miter; stroke-linecap: square"/>
   </g>
   <g id="patch_24">
    <path d="M 39.26 295.561549 
L 709.2 295.561549 
" style="fill: none; stroke: #000000; stroke-width: 0.8; stroke-linejoin: miter; stroke-linecap: square"/>
   </g>
   <g id="text_21">
    <!-- Validation WAPE by Candidate -->
    <g transform="translate(287.02375 20.88) scale(0.12 -0.12)">
     <defs>
      <path id="MicrosoftYaHei-56" d="M 4272 4841 
L 2494 0 
L 1800 0 
L 56 4841 
L 750 4841 
L 2053 1056 
Q 2119 869 2150 622 
L 2166 622 
Q 2191 838 2275 1063 
L 3603 4841 
L 4272 4841 
z
" transform="scale(0.015625)"/>
      <path id="MicrosoftYaHei-61" d="M 628 3216 
Q 1144 3538 1819 3538 
Q 3069 3538 3069 2225 
L 3069 0 
L 2463 0 
L 2463 534 
L 2447 534 
Q 2088 -81 1388 -81 
Q 884 -81 587 191 
Q 291 463 291 925 
Q 291 1894 1438 2053 
L 2463 2197 
Q 2463 3044 1763 3044 
Q 1141 3044 628 2625 
L 628 3216 
z
M 1653 1625 
Q 1228 1569 1067 1412 
Q 906 1256 906 975 
Q 906 728 1081 572 
Q 1256 416 1544 416 
Q 1944 416 2203 697 
Q 2463 978 2463 1403 
L 2463 1734 
L 1653 1625 
z
" transform="scale(0.015625)"/>
      <path id="MicrosoftYaHei-6c" d="M 544 0 
L 544 5116 
L 1156 5116 
L 1156 0 
L 544 0 
z
" transform="scale(0.015625)"/>
      <path id="MicrosoftYaHei-62" d="M 1159 488 
L 1159 0 
L 547 0 
L 547 5116 
L 1159 5116 
L 1159 2859 
L 1172 2859 
Q 1578 3538 2359 3538 
Q 3009 3538 3392 3080 
Q 3775 2622 3775 1828 
Q 3775 953 3345 436 
Q 2916 -81 2200 -81 
Q 1525 -81 1172 488 
L 1159 488 
z
M 1156 1422 
Q 1156 1003 1428 714 
Q 1700 425 2109 425 
Q 2597 425 2872 800 
Q 3147 1175 3147 1838 
Q 3147 2384 2890 2707 
Q 2634 3031 2191 3031 
Q 1741 3031 1448 2709 
Q 1156 2388 1156 1891 
L 1156 1422 
z
" transform="scale(0.015625)"/>
      <path id="MicrosoftYaHei-79" d="M 3359 3456 
L 1791 -522 
Q 1353 -1628 556 -1628 
Q 328 -1628 166 -1578 
L 166 -1041 
Q 344 -1109 509 -1109 
Q 925 -1109 1131 -622 
L 1397 6 
L 41 3456 
L 719 3456 
L 1622 859 
L 1697 575 
L 1713 575 
Q 1731 672 1788 853 
L 2731 3456 
L 3359 3456 
z
" transform="scale(0.015625)"/>
      <path id="MicrosoftYaHei-43" d="M 3938 200 
Q 3403 -81 2597 -81 
Q 1556 -81 934 580 
Q 313 1241 313 2328 
Q 313 3497 1013 4209 
Q 1713 4922 2791 4922 
Q 3484 4922 3938 4725 
L 3938 4072 
Q 3419 4359 2797 4359 
Q 1988 4359 1478 3820 
Q 969 3281 969 2366 
Q 969 1497 1444 986 
Q 1919 475 2688 475 
Q 3406 475 3938 800 
L 3938 200 
z
" transform="scale(0.015625)"/>
      <path id="MicrosoftYaHei-65" d="M 3363 1572 
L 944 1572 
Q 959 1019 1246 717 
Q 1534 416 2050 416 
Q 2631 416 3116 788 
L 3116 241 
Q 2659 -81 1906 -81 
Q 1156 -81 736 394 
Q 316 869 316 1713 
Q 316 2506 777 3022 
Q 1238 3538 1922 3538 
Q 2600 3538 2981 3102 
Q 3363 2666 3363 1881 
L 3363 1572 
z
M 2750 2063 
Q 2747 2531 2528 2787 
Q 2309 3044 1913 3044 
Q 1547 3044 1280 2772 
Q 1013 2500 944 2063 
L 2750 2063 
z
" transform="scale(0.015625)"/>
     </defs>
     <use xlink:href="#MicrosoftYaHei-56"/>
     <use xlink:href="#MicrosoftYaHei-61" transform="translate(59.876953 0)"/>
     <use xlink:href="#MicrosoftYaHei-6c" transform="translate(115.150391 0)"/>
     <use xlink:href="#MicrosoftYaHei-69" transform="translate(141.761719 0)"/>
     <use xlink:href="#MicrosoftYaHei-64" transform="translate(168.373047 0)"/>
     <use xlink:href="#MicrosoftYaHei-61" transform="translate(232.337891 0)"/>
     <use xlink:href="#MicrosoftYaHei-74" transform="translate(287.611328 0)"/>
     <use xlink:href="#MicrosoftYaHei-69" transform="translate(324.867188 0)"/>
     <use xlink:href="#MicrosoftYaHei-6f" transform="translate(351.478516 0)"/>
     <use xlink:href="#MicrosoftYaHei-6e" transform="translate(415.052734 0)"/>
     <use xlink:href="#MicrosoftYaHei-20" transform="translate(476.673828 0)"/>
     <use xlink:href="#MicrosoftYaHei-57" transform="translate(506.263672 0)"/>
     <use xlink:href="#MicrosoftYaHei-41" transform="translate(604.146484 0)"/>
     <use xlink:href="#MicrosoftYaHei-50" transform="translate(674.507812 0)"/>
     <use xlink:href="#MicrosoftYaHei-45" transform="translate(735.689453 0)"/>
     <use xlink:href="#MicrosoftYaHei-20" transform="translate(790.669922 0)"/>
     <use xlink:href="#MicrosoftYaHei-62" transform="translate(820.259766 0)"/>
     <use xlink:href="#MicrosoftYaHei-79" transform="translate(884.126953 0)"/>
     <use xlink:href="#MicrosoftYaHei-20" transform="translate(937.056641 0)"/>
     <use xlink:href="#MicrosoftYaHei-43" transform="translate(966.646484 0)"/>
     <use xlink:href="#MicrosoftYaHei-61" transform="translate(1033.541016 0)"/>
     <use xlink:href="#MicrosoftYaHei-6e" transform="translate(1088.814453 0)"/>
     <use xlink:href="#MicrosoftYaHei-64" transform="translate(1150.435547 0)"/>
     <use xlink:href="#MicrosoftYaHei-69" transform="translate(1214.400391 0)"/>
     <use xlink:href="#MicrosoftYaHei-64" transform="translate(1241.011719 0)"/>
     <use xlink:href="#MicrosoftYaHei-61" transform="translate(1304.976562 0)"/>
     <use xlink:href="#MicrosoftYaHei-74" transform="translate(1360.25 0)"/>
     <use xlink:href="#MicrosoftYaHei-65" transform="translate(1396.630859 0)"/>
    </g>
   </g>
   <g id="legend_1">
    <g id="patch_25">
     <path d="M 46.26 66.090937 
L 214.01 66.090937 
Q 216.01 66.090937 216.01 64.090937 
L 216.01 33.88 
Q 216.01 31.88 214.01 31.88 
L 46.26 31.88 
Q 44.26 31.88 44.26 33.88 
L 44.26 64.090937 
Q 44.26 66.090937 46.26 66.090937 
z
" style="fill: #ffffff; opacity: 0.8; stroke: #cccccc; stroke-linejoin: miter"/>
    </g>
    <g id="patch_26">
     <path d="M 48.26 43.87375 
L 68.26 43.87375 
L 68.26 36.87375 
L 48.26 36.87375 
z
" style="fill: #1f77b4"/>
    </g>
    <g id="text_22">
     <!-- val_tcn_sample_power_wape -->
     <g transform="translate(76.26 43.87375) scale(0.1 -0.1)">
      <defs>
       <path id="MicrosoftYaHei-76" d="M 3331 3456 
L 1963 0 
L 1344 0 
L 44 3456 
L 713 3456 
L 1556 988 
Q 1659 691 1678 491 
L 1694 491 
Q 1725 753 1803 975 
L 2688 3456 
L 3331 3456 
z
" transform="scale(0.015625)"/>
       <path id="MicrosoftYaHei-6d" d="M 5522 0 
L 4909 0 
L 4909 1984 
Q 4909 2547 4734 2789 
Q 4559 3031 4159 3031 
Q 3822 3031 3581 2715 
Q 3341 2400 3341 1969 
L 3341 0 
L 2728 0 
L 2728 2047 
Q 2728 3031 1969 3031 
Q 1619 3031 1389 2731 
Q 1159 2431 1159 1966 
L 1159 0 
L 547 0 
L 547 3456 
L 1159 3456 
L 1159 2909 
L 1172 2909 
Q 1541 3538 2250 3538 
Q 2597 3538 2862 3347 
Q 3128 3156 3231 2831 
Q 3616 3538 4381 3538 
Q 5522 3538 5522 2131 
L 5522 0 
z
" transform="scale(0.015625)"/>
       <path id="MicrosoftYaHei-70" d="M 1159 488 
L 1159 -1591 
L 547 -1591 
L 547 3456 
L 1159 3456 
L 1159 2859 
L 1172 2859 
Q 1578 3538 2359 3538 
Q 3022 3538 3398 3073 
Q 3775 2609 3775 1828 
Q 3775 966 3348 442 
Q 2922 -81 2200 -81 
Q 1534 -81 1172 488 
L 1159 488 
z
M 1156 1425 
Q 1156 1003 1428 714 
Q 1700 425 2109 425 
Q 2597 425 2872 800 
Q 3147 1175 3147 1838 
Q 3147 2397 2890 2714 
Q 2634 3031 2191 3031 
Q 1738 3031 1447 2709 
Q 1156 2388 1156 1884 
L 1156 1425 
z
" transform="scale(0.015625)"/>
       <path id="MicrosoftYaHei-72" d="M 2400 2850 
Q 2247 2959 1978 2959 
Q 1622 2959 1390 2626 
Q 1159 2294 1159 1750 
L 1159 0 
L 547 0 
L 547 3456 
L 1159 3456 
L 1159 2753 
L 1172 2753 
Q 1434 3516 2078 3516 
Q 2288 3516 2400 3469 
L 2400 2850 
z
" transform="scale(0.015625)"/>
      </defs>
      <use xlink:href="#MicrosoftYaHei-76"/>
      <use xlink:href="#MicrosoftYaHei-61" transform="translate(50.490234 0)"/>
      <use xlink:href="#MicrosoftYaHei-6c" transform="translate(105.763672 0)"/>
      <use xlink:href="#MicrosoftYaHei-5f" transform="translate(132.375 0)"/>
      <use xlink:href="#MicrosoftYaHei-74" transform="translate(177.199219 0)"/>
      <use xlink:href="#MicrosoftYaHei-63" transform="translate(213.080078 0)"/>
      <use xlink:href="#MicrosoftYaHei-6e" transform="translate(263.226562 0)"/>
      <use xlink:href="#MicrosoftYaHei-5f" transform="translate(324.847656 0)"/>
      <use xlink:href="#MicrosoftYaHei-73" transform="translate(369.671875 0)"/>
      <use xlink:href="#MicrosoftYaHei-61" transform="translate(415.960938 0)"/>
      <use xlink:href="#MicrosoftYaHei-6d" transform="translate(471.234375 0)"/>
      <use xlink:href="#MicrosoftYaHei-70" transform="translate(564.935547 0)"/>
      <use xlink:href="#MicrosoftYaHei-6c" transform="translate(628.802734 0)"/>
      <use xlink:href="#MicrosoftYaHei-65" transform="translate(655.414062 0)"/>
      <use xlink:href="#MicrosoftYaHei-5f" transform="translate(712.152344 0)"/>
      <use xlink:href="#MicrosoftYaHei-70" transform="translate(756.976562 0)"/>
      <use xlink:href="#MicrosoftYaHei-6f" transform="translate(820.84375 0)"/>
      <use xlink:href="#MicrosoftYaHei-77" transform="translate(884.417969 0)"/>
      <use xlink:href="#MicrosoftYaHei-65" transform="translate(962.873047 0)"/>
      <use xlink:href="#MicrosoftYaHei-72" transform="translate(1019.611328 0)"/>
      <use xlink:href="#MicrosoftYaHei-5f" transform="translate(1057.794922 0)"/>
      <use xlink:href="#MicrosoftYaHei-77" transform="translate(1102.619141 0)"/>
      <use xlink:href="#MicrosoftYaHei-61" transform="translate(1181.574219 0)"/>
      <use xlink:href="#MicrosoftYaHei-70" transform="translate(1236.847656 0)"/>
      <use xlink:href="#MicrosoftYaHei-65" transform="translate(1300.714844 0)"/>
     </g>
    </g>
    <g id="patch_27">
     <path d="M 48.26 59.537812 
L 68.26 59.537812 
L 68.26 52.537812 
L 48.26 52.537812 
z
" style="fill: #ff7f0e"/>
    </g>
    <g id="text_23">
     <!-- val_tcn_flight_energy_wape -->
     <g transform="translate(76.26 59.537812) scale(0.1 -0.1)">
      <defs>
       <path id="MicrosoftYaHei-66" d="M 2319 4594 
Q 2147 4684 1947 4684 
Q 1372 4684 1372 3972 
L 1372 3456 
L 2181 3456 
L 2181 2950 
L 1372 2950 
L 1372 0 
L 766 0 
L 766 2950 
L 175 2950 
L 175 3456 
L 766 3456 
L 766 4000 
Q 766 4556 1086 4873 
Q 1406 5191 1900 5191 
Q 2163 5191 2319 5131 
L 2319 4594 
z
" transform="scale(0.015625)"/>
       <path id="MicrosoftYaHei-67" d="M 3547 291 
Q 3547 -1628 1684 -1628 
Q 1041 -1628 566 -1388 
L 566 -797 
Q 1144 -1119 1675 -1119 
Q 2934 -1119 2934 206 
L 2934 572 
L 2922 572 
Q 2528 -81 1747 -81 
Q 1097 -81 706 384 
Q 316 850 316 1619 
Q 316 2503 747 3020 
Q 1178 3538 1897 3538 
Q 2588 3538 2922 2988 
L 2934 2988 
L 2934 3456 
L 3547 3456 
L 3547 291 
z
M 2934 2056 
Q 2938 2456 2666 2743 
Q 2394 3031 1997 3031 
Q 1497 3031 1219 2664 
Q 941 2297 941 1656 
Q 941 1106 1209 765 
Q 1478 425 1922 425 
Q 2369 425 2653 750 
Q 2938 1075 2934 1575 
L 2934 2056 
z
" transform="scale(0.015625)"/>
       <path id="MicrosoftYaHei-68" d="M 3466 0 
L 2856 0 
L 2856 1988 
Q 2856 3031 2081 3031 
Q 1684 3031 1421 2726 
Q 1159 2422 1159 1959 
L 1159 0 
L 547 0 
L 547 5116 
L 1159 5116 
L 1159 2888 
L 1172 2888 
Q 1569 3538 2300 3538 
Q 3466 3538 3466 2128 
L 3466 0 
z
" transform="scale(0.015625)"/>
      </defs>
      <use xlink:href="#MicrosoftYaHei-76"/>
      <use xlink:href="#MicrosoftYaHei-61" transform="translate(50.490234 0)"/>
      <use xlink:href="#MicrosoftYaHei-6c" transform="translate(105.763672 0)"/>
      <use xlink:href="#MicrosoftYaHei-5f" transform="translate(132.375 0)"/>
      <use xlink:href="#MicrosoftYaHei-74" transform="translate(177.199219 0)"/>
      <use xlink:href="#MicrosoftYaHei-63" transform="translate(213.080078 0)"/>
      <use xlink:href="#MicrosoftYaHei-6e" transform="translate(263.226562 0)"/>
      <use xlink:href="#MicrosoftYaHei-5f" transform="translate(324.847656 0)"/>
      <use xlink:href="#MicrosoftYaHei-66" transform="translate(369.671875 0)"/>
      <use xlink:href="#MicrosoftYaHei-6c" transform="translate(404.339844 0)"/>
      <use xlink:href="#MicrosoftYaHei-69" transform="translate(430.951172 0)"/>
      <use xlink:href="#MicrosoftYaHei-67" transform="translate(457.5625 0)"/>
      <use xlink:href="#MicrosoftYaHei-68" transform="translate(521.527344 0)"/>
      <use xlink:href="#MicrosoftYaHei-74" transform="translate(583.099609 0)"/>
      <use xlink:href="#MicrosoftYaHei-5f" transform="translate(620.355469 0)"/>
      <use xlink:href="#MicrosoftYaHei-65" transform="translate(665.179688 0)"/>
      <use xlink:href="#MicrosoftYaHei-6e" transform="translate(721.917969 0)"/>
      <use xlink:href="#MicrosoftYaHei-65" transform="translate(783.539062 0)"/>
      <use xlink:href="#MicrosoftYaHei-72" transform="translate(840.277344 0)"/>
      <use xlink:href="#MicrosoftYaHei-67" transform="translate(877.085938 0)"/>
      <use xlink:href="#MicrosoftYaHei-79" transform="translate(941.050781 0)"/>
      <use xlink:href="#MicrosoftYaHei-5f" transform="translate(993.980469 0)"/>
      <use xlink:href="#MicrosoftYaHei-77" transform="translate(1038.804688 0)"/>
      <use xlink:href="#MicrosoftYaHei-61" transform="translate(1117.759766 0)"/>
      <use xlink:href="#MicrosoftYaHei-70" transform="translate(1173.033203 0)"/>
      <use xlink:href="#MicrosoftYaHei-65" transform="translate(1236.900391 0)"/>
     </g>
    </g>
   </g>
  </g>
 </g>
 <defs>
  <clipPath id="p65860797d6">
   <rect x="39.26" y="26.88" width="669.94" height="268.681549"/>
  </clipPath>
 </defs>
</svg>
