<?xml version="1.0" encoding="utf-8" standalone="no"?>
<!DOCTYPE svg PUBLIC "-//W3C//DTD SVG 1.1//EN"
  "http://www.w3.org/Graphics/SVG/1.1/DTD/svg11.dtd">
<svg xmlns:xlink="http://www.w3.org/1999/xlink" width="720pt" height="504pt" viewBox="0 0 720 504" xmlns="http://www.w3.org/2000/svg" version="1.1">
 <metadata>
  <rdf:RDF xmlns:dc="http://purl.org/dc/elements/1.1/" xmlns:cc="http://creativecommons.org/ns#" xmlns:rdf="http://www.w3.org/1999/02/22-rdf-syntax-ns#">
   <cc:Work>
    <dc:type rdf:resource="http://purl.org/dc/dcmitype/StillImage"/>
    <dc:date>2026-09-15T05:40:41.325405</dc:date>
    <dc:format>image/svg+xml</dc:format>
    <dc:creator>
     <cc:Agent>
      <dc:title>Matplotlib v3.10.8, https://matplotlib.org/</dc:title>
     </cc:Agent>
    </dc:creator>
   </cc:Work>
  </rdf:RDF>
 </metadata>
 <defs>
  <style type="text/css">*{stroke-linejoin: round; stroke-linecap: butt}</style>
 </defs>
 <g id="figure_1">
  <g id="patch_1">
   <path d="M 0 504 
L 720 504 
L 720 0 
L 0 0 
z
" style="fill: #ffffff"/>
  </g>
  <g id="axes_1">
   <g id="patch_2">
    <path d="M 53.3 239.71 
L 709.2 239.71 
L 709.2 34.56 
L 53.3 34.56 
z
" style="fill: #ffffff"/>
   </g>
   <g id="matplotlib.axis_1">
    <g id="xtick_1">
     <g id="line2d_1">
      <path d="M 83.113636 239.71 
L 83.113636 34.56 
" clip-path="url(#p42ac4e4276)" style="fill: none; stroke: #b0b0b0; stroke-opacity: 0.25; stroke-width: 0.8; stroke-linecap: square"/>
     </g>
     <g id="line2d_2">
      <defs>
       <path id="m0cea3c2d1d" d="M 0 0 
L 0 3.5 
" style="stroke: #000000; stroke-width: 0.8"/>
      </defs>
      <g>
       <use xlink:href="#m0cea3c2d1d" x="83.113636" y="239.71" style="stroke: #000000; stroke-width: 0.8"/>
      </g>
     </g>
    </g>
    <g id="xtick_2">
     <g id="line2d_3">
      <path d="M 165.929293 239.71 
L 165.929293 34.56 
" clip-path="url(#p42ac4e4276)" style="fill: none; stroke: #b0b0b0; stroke-opacity: 0.25; stroke-width: 0.8; stroke-linecap: square"/>
     </g>
     <g id="line2d_4">
      <g>
       <use xlink:href="#m0cea3c2d1d" x="165.929293" y="239.71" style="stroke: #000000; stroke-width: 0.8"/>
      </g>
     </g>
    </g>
    <g id="xtick_3">
     <g id="line2d_5">
      <path d="M 248.744949 239.71 
L 248.744949 34.56 
" clip-path="url(#p42ac4e4276)" style="fill: none; stroke: #b0b0b0; stroke-opacity: 0.25; stroke-width: 0.8; stroke-linecap: square"/>
     </g>
     <g id="line2d_6">
      <g>
       <use xlink:href="#m0cea3c2d1d" x="248.744949" y="239.71" style="stroke: #000000; stroke-width: 0.8"/>
      </g>
     </g>
    </g>
    <g id="xtick_4">
     <g id="line2d_7">
      <path d="M 331.560606 239.71 
L 331.560606 34.56 
" clip-path="url(#p42ac4e4276)" style="fill: none; stroke: #b0b0b0; stroke-opacity: 0.25; stroke-width: 0.8; stroke-linecap: square"/>
     </g>
     <g id="line2d_8">
      <g>
       <use xlink:href="#m0cea3c2d1d" x="331.560606" y="239.71" style="stroke: #000000; stroke-width: 0.8"/>
      </g>
     </g>
    </g>
    <g id="xtick_5">
     <g id="line2d_9">
      <path d="M 414.376263 239.71 
L 414.376263 34.56 
" clip-path="url(#p42ac4e4276)" style="fill: none; stroke: #b0b0b0; stroke-opacity: 0.25; stroke-width: 0.8; stroke-linecap: square"/>
     </g>
     <g id="line2d_10">
      <g>
       <use xlink:href="#m0cea3c2d1d" x="414.376263" y="239.71" style="stroke: #000000; stroke-width: 0.8"/>
      </g>
     </g>
    </g>
    <g id="xtick_6">
     <g id="line2d_11">
      <path d="M 497.191919 239.71 
L 497.191919 34.56 
" clip-path="url(#p42ac4e4276)" style="fill: none; stroke: #b0b0b0; stroke-opacity: 0.25; stroke-width: 0.8; stroke-linecap: square"/>
     </g>
     <g id="line2d_12">
      <g>
       <use xlink:href="#m0cea3c2d1d" x="497.191919" y="239.71" style="stroke: #000000; stroke-width: 0.8"/>
      </g>
     </g>
    </g>
    <g id="xtick_7">
     <g id="line2d_13">
      <path d="M 580.007576 239.71 
L 580.007576 34.56 
" clip-path="url(#p42ac4e4276)" style="fill: none; stroke: #b0b0b0; stroke-opacity: 0.25; stroke-width: 0.8; stroke-linecap: square"/>
     </g>
     <g id="line2d_14">
      <g>
       <use xlink:href="#m0cea3c2d1d" x="580.007576" y="239.71" style="stroke: #000000; stroke-width: 0.8"/>
      </g>
     </g>
    </g>
    <g id="xtick_8">
     <g id="line2d_15">
      <path d="M 662.823232 239.71 
L 662.823232 34.56 
" clip-path="url(#p42ac4e4276)" style="fill: none; stroke: #b0b0b0; stroke-opacity: 0.25; stroke-width: 0.8; stroke-linecap: square"/>
     </g>
     <g id="line2d_16">
      <g>
       <use xlink:href="#m0cea3c2d1d" x="662.823232" y="239.71" style="stroke: #000000; stroke-width: 0.8"/>
      </g>
     </g>
    </g>
   </g>
   <g id="matplotlib.axis_2">
    <g id="ytick_1">
     <g id="line2d_17">
      <path d="M 53.3 232.58469 
L 709.2 232.58469 
" clip-path="url(#p42ac4e4276)" style="fill: none; stroke: #b0b0b0; stroke-opacity: 0.25; stroke-width: 0.8; stroke-linecap: square"/>
     </g>
     <g id="line2d_18">
      <defs>
       <path id="me10b68eb2d" d="M 0 0 
L -3.5 0 
" style="stroke: #000000; stroke-width: 0.8"/>
      </defs>
      <g>
       <use xlink:href="#me10b68eb2d" x="53.3" y="232.58469" style="stroke: #000000; stroke-width: 0.8"/>
      </g>
     </g>
     <g id="text_1">
      <!-- -0.8 -->
      <g transform="translate(27.8375 236.581565) scale(0.1 -0.1)">
       <defs>
        <path id="MicrosoftYaHei-2d" d="M 2328 1681 
L 488 1681 
L 488 2153 
L 2328 2153 
L 2328 1681 
z
" transform="scale(0.015625)"/>
        <path id="MicrosoftYaHei-30" d="M 284 2325 
Q 284 3606 709 4264 
Q 1134 4922 1941 4922 
Q 3478 4922 3478 2441 
Q 3478 1216 3045 567 
Q 2613 -81 1831 -81 
Q 1094 -81 689 534 
Q 284 1150 284 2325 
z
M 909 2353 
Q 909 425 1888 425 
Q 2850 425 2850 2384 
Q 2850 4413 1906 4413 
Q 909 4413 909 2353 
z
" transform="scale(0.015625)"/>
        <path id="MicrosoftYaHei-2e" d="M 372 322 
Q 372 491 487 606 
Q 603 722 775 722 
Q 950 722 1065 605 
Q 1181 488 1181 322 
Q 1181 159 1065 42 
Q 950 -75 772 -75 
Q 600 -75 486 42 
Q 372 159 372 322 
z
" transform="scale(0.015625)"/>
        <path id="MicrosoftYaHei-38" d="M 306 1350 
Q 306 1769 556 2122 
Q 806 2475 1200 2625 
Q 884 2803 700 3081 
Q 516 3359 516 3684 
Q 516 4028 692 4312 
Q 869 4597 1183 4759 
Q 1497 4922 1875 4922 
Q 2256 4922 2572 4761 
Q 2888 4600 3063 4315 
Q 3238 4031 3238 3684 
Q 3238 3366 3058 3086 
Q 2878 2806 2559 2625 
Q 2953 2472 3200 2119 
Q 3447 1766 3447 1350 
Q 3447 938 3250 611 
Q 3053 284 2690 103 
Q 2328 -78 1875 -78 
Q 1425 -78 1065 103 
Q 706 284 506 612 
Q 306 941 306 1350 
z
M 906 1378 
Q 906 947 1172 687 
Q 1438 428 1878 428 
Q 2309 428 2582 692 
Q 2856 956 2856 1378 
Q 2856 1778 2579 2051 
Q 2303 2325 1878 2325 
Q 1456 2325 1181 2058 
Q 906 1791 906 1378 
z
M 1081 3634 
Q 1081 3309 1312 3076 
Q 1544 2844 1878 2844 
Q 2206 2844 2445 3078 
Q 2684 3313 2684 3634 
Q 2684 3963 2454 4191 
Q 2225 4419 1878 4419 
Q 1534 4419 1307 4195 
Q 1081 3972 1081 3634 
z
" transform="scale(0.015625)"/>
       </defs>
       <use xlink:href="#MicrosoftYaHei-2d"/>
       <use xlink:href="#MicrosoftYaHei-30" transform="translate(43.261719 0)"/>
       <use xlink:href="#MicrosoftYaHei-2e" transform="translate(101.904297 0)"/>
       <use xlink:href="#MicrosoftYaHei-38" transform="translate(125.976562 0)"/>
      </g>
     </g>
    </g>
    <g id="ytick_2">
     <g id="line2d_19">
      <path d="M 53.3 204.001792 
L 709.2 204.001792 
" clip-path="url(#p42ac4e4276)" style="fill: none; stroke: #b0b0b0; stroke-opacity: 0.25; stroke-width: 0.8; stroke-linecap: square"/>
     </g>
     <g id="line2d_20">
      <g>
       <use xlink:href="#me10b68eb2d" x="53.3" y="204.001792" style="stroke: #000000; stroke-width: 0.8"/>
      </g>
     </g>
     <g id="text_2">
      <!-- -0.6 -->
      <g transform="translate(27.8375 207.998667) scale(0.1 -0.1)">
       <defs>
        <path id="MicrosoftYaHei-36" d="M 3181 4219 
Q 2803 4413 2391 4413 
Q 1763 4413 1381 3866 
Q 1000 3319 994 2372 
L 1009 2372 
Q 1353 3038 2106 3038 
Q 2734 3038 3109 2628 
Q 3484 2219 3484 1541 
Q 3484 831 3051 375 
Q 2619 -81 1947 -81 
Q 1209 -81 789 495 
Q 369 1072 369 2131 
Q 369 3413 920 4167 
Q 1472 4922 2372 4922 
Q 2888 4922 3181 4781 
L 3181 4219 
z
M 1031 1584 
Q 1031 1106 1286 765 
Q 1541 425 1963 425 
Q 2363 425 2613 719 
Q 2863 1013 2863 1475 
Q 2863 1975 2627 2253 
Q 2391 2531 1956 2531 
Q 1544 2531 1287 2250 
Q 1031 1969 1031 1584 
z
" transform="scale(0.015625)"/>
       </defs>
       <use xlink:href="#MicrosoftYaHei-2d"/>
       <use xlink:href="#MicrosoftYaHei-30" transform="translate(43.261719 0)"/>
       <use xlink:href="#MicrosoftYaHei-2e" transform="translate(101.904297 0)"/>
       <use xlink:href="#MicrosoftYaHei-36" transform="translate(125.976562 0)"/>
      </g>
     </g>
    </g>
    <g id="ytick_3">
     <g id="line2d_21">
      <path d="M 53.3 175.418895 
L 709.2 175.418895 
" clip-path="url(#p42ac4e4276)" style="fill: none; stroke: #b0b0b0; stroke-opacity: 0.25; stroke-width: 0.8; stroke-linecap: square"/>
     </g>
     <g id="line2d_22">
      <g>
       <use xlink:href="#me10b68eb2d" x="53.3" y="175.418895" style="stroke: #000000; stroke-width: 0.8"/>
      </g>
     </g>
     <g id="text_3">
      <!-- -0.4 -->
      <g transform="translate(27.8375 179.41577) scale(0.1 -0.1)">
       <defs>
        <path id="MicrosoftYaHei-34" d="M 2906 4841 
L 2906 1644 
L 3631 1644 
L 3631 1138 
L 2906 1138 
L 2906 0 
L 2313 0 
L 2313 1138 
L 53 1138 
L 53 1616 
Q 656 2294 1265 3178 
Q 1875 4063 2272 4841 
L 2906 4841 
z
M 741 1644 
L 2313 1644 
L 2313 3950 
Q 1988 3366 1616 2817 
Q 1244 2269 741 1644 
z
" transform="scale(0.015625)"/>
       </defs>
       <use xlink:href="#MicrosoftYaHei-2d"/>
       <use xlink:href="#MicrosoftYaHei-30" transform="translate(43.261719 0)"/>
       <use xlink:href="#MicrosoftYaHei-2e" transform="translate(101.904297 0)"/>
       <use xlink:href="#MicrosoftYaHei-34" transform="translate(125.976562 0)"/>
      </g>
     </g>
    </g>
    <g id="ytick_4">
     <g id="line2d_23">
      <path d="M 53.3 146.835997 
L 709.2 146.835997 
" clip-path="url(#p42ac4e4276)" style="fill: none; stroke: #b0b0b0; stroke-opacity: 0.25; stroke-width: 0.8; stroke-linecap: square"/>
     </g>
     <g id="line2d_24">
      <g>
       <use xlink:href="#me10b68eb2d" x="53.3" y="146.835997" style="stroke: #000000; stroke-width: 0.8"/>
      </g>
     </g>
     <g id="text_4">
      <!-- -0.2 -->
      <g transform="translate(27.8375 150.832872) scale(0.1 -0.1)">
       <defs>
        <path id="MicrosoftYaHei-32" d="M 2666 3572 
Q 2666 3963 2419 4186 
Q 2172 4409 1747 4409 
Q 1447 4409 1140 4256 
Q 834 4103 569 3819 
L 569 4413 
Q 806 4659 1107 4790 
Q 1409 4922 1816 4922 
Q 2472 4922 2872 4570 
Q 3272 4219 3272 3619 
Q 3272 3084 3026 2693 
Q 2781 2303 2188 1894 
Q 1581 1475 1376 1294 
Q 1172 1113 1090 947 
Q 1009 781 1009 544 
L 3416 544 
L 3416 0 
L 372 0 
L 372 241 
Q 372 659 486 951 
Q 600 1244 862 1520 
Q 1125 1797 1681 2184 
Q 2250 2584 2458 2886 
Q 2666 3188 2666 3572 
z
" transform="scale(0.015625)"/>
       </defs>
       <use xlink:href="#MicrosoftYaHei-2d"/>
       <use xlink:href="#MicrosoftYaHei-30" transform="translate(43.261719 0)"/>
       <use xlink:href="#MicrosoftYaHei-2e" transform="translate(101.904297 0)"/>
       <use xlink:href="#MicrosoftYaHei-32" transform="translate(125.976562 0)"/>
      </g>
     </g>
    </g>
    <g id="ytick_5">
     <g id="line2d_25">
      <path d="M 53.3 118.2531 
L 709.2 118.2531 
" clip-path="url(#p42ac4e4276)" style="fill: none; stroke: #b0b0b0; stroke-opacity: 0.25; stroke-width: 0.8; stroke-linecap: square"/>
     </g>
     <g id="line2d_26">
      <g>
       <use xlink:href="#me10b68eb2d" x="53.3" y="118.2531" style="stroke: #000000; stroke-width: 0.8"/>
      </g>
     </g>
     <g id="text_5">
      <!-- 0.0 -->
      <g transform="translate(32.164063 122.249975) scale(0.1 -0.1)">
       <use xlink:href="#MicrosoftYaHei-30"/>
       <use xlink:href="#MicrosoftYaHei-2e" transform="translate(58.642578 0)"/>
       <use xlink:href="#MicrosoftYaHei-30" transform="translate(82.714844 0)"/>
      </g>
     </g>
    </g>
    <g id="ytick_6">
     <g id="line2d_27">
      <path d="M 53.3 89.670202 
L 709.2 89.670202 
" clip-path="url(#p42ac4e4276)" style="fill: none; stroke: #b0b0b0; stroke-opacity: 0.25; stroke-width: 0.8; stroke-linecap: square"/>
     </g>
     <g id="line2d_28">
      <g>
       <use xlink:href="#me10b68eb2d" x="53.3" y="89.670202" style="stroke: #000000; stroke-width: 0.8"/>
      </g>
     </g>
     <g id="text_6">
      <!-- 0.2 -->
      <g transform="translate(32.164063 93.667077) scale(0.1 -0.1)">
       <use xlink:href="#MicrosoftYaHei-30"/>
       <use xlink:href="#MicrosoftYaHei-2e" transform="translate(58.642578 0)"/>
       <use xlink:href="#MicrosoftYaHei-32" transform="translate(82.714844 0)"/>
      </g>
     </g>
    </g>
    <g id="ytick_7">
     <g id="line2d_29">
      <path d="M 53.3 61.087305 
L 709.2 61.087305 
" clip-path="url(#p42ac4e4276)" style="fill: none; stroke: #b0b0b0; stroke-opacity: 0.25; stroke-width: 0.8; stroke-linecap: square"/>
     </g>
     <g id="line2d_30">
      <g>
       <use xlink:href="#me10b68eb2d" x="53.3" y="61.087305" style="stroke: #000000; stroke-width: 0.8"/>
      </g>
     </g>
     <g id="text_7">
      <!-- 0.4 -->
      <g transform="translate(32.164063 65.08418) scale(0.1 -0.1)">
       <use xlink:href="#MicrosoftYaHei-30"/>
       <use xlink:href="#MicrosoftYaHei-2e" transform="translate(58.642578 0)"/>
       <use xlink:href="#MicrosoftYaHei-34" transform="translate(82.714844 0)"/>
      </g>
     </g>
    </g>
    <g id="text_8">
     <!-- Bias coefficient -->
     <g transform="translate(21.351563 173.099844) rotate(-90) scale(0.1 -0.1)">
      <defs>
       <path id="MicrosoftYaHei-42" d="M 625 0 
L 625 4841 
L 2047 4841 
Q 2684 4841 3065 4536 
Q 3447 4231 3447 3728 
Q 3447 3328 3220 3022 
Q 2994 2716 2597 2588 
L 2597 2575 
Q 3091 2519 3386 2201 
Q 3681 1884 3681 1397 
Q 3681 772 3232 386 
Q 2784 0 2084 0 
L 625 0 
z
M 1250 4294 
L 1250 2778 
L 1819 2778 
Q 2272 2778 2530 2998 
Q 2788 3219 2788 3609 
Q 2788 4294 1875 4294 
L 1250 4294 
z
M 1250 2234 
L 1250 547 
L 2000 547 
Q 2491 547 2758 773 
Q 3025 1000 3025 1403 
Q 3025 2234 1897 2234 
L 1250 2234 
z
" transform="scale(0.015625)"/>
       <path id="MicrosoftYaHei-69" d="M 472 4675 
Q 472 4838 583 4948 
Q 694 5059 856 5059 
Q 1022 5059 1136 4950 
Q 1250 4841 1250 4675 
Q 1250 4513 1136 4405 
Q 1022 4297 856 4297 
Q 691 4297 581 4405 
Q 472 4513 472 4675 
z
M 544 0 
L 544 3456 
L 1156 3456 
L 1156 0 
L 544 0 
z
" transform="scale(0.015625)"/>
       <path id="MicrosoftYaHei-61" d="M 628 3216 
Q 1144 3538 1819 3538 
Q 3069 3538 3069 2225 
L 3069 0 
L 2463 0 
L 2463 534 
L 2447 534 
Q 2088 -81 1388 -81 
Q 884 -81 587 191 
Q 291 463 291 925 
Q 291 1894 1438 2053 
L 2463 2197 
Q 2463 3044 1763 3044 
Q 1141 3044 628 2625 
L 628 3216 
z
M 1653 1625 
Q 1228 1569 1067 1412 
Q 906 1256 906 975 
Q 906 728 1081 572 
Q 1256 416 1544 416 
Q 1944 416 2203 697 
Q 2463 978 2463 1403 
L 2463 1734 
L 1653 1625 
z
" transform="scale(0.015625)"/>
       <path id="MicrosoftYaHei-73" d="M 353 747 
Q 816 413 1350 413 
Q 2066 413 2066 881 
Q 2066 1081 1909 1211 
Q 1753 1341 1275 1519 
Q 700 1750 528 1976 
Q 356 2203 356 2525 
Q 356 2984 745 3261 
Q 1134 3538 1703 3538 
Q 2144 3538 2522 3384 
L 2522 2794 
Q 2134 3044 1644 3044 
Q 1350 3044 1165 2916 
Q 981 2788 981 2578 
Q 981 2372 1114 2256 
Q 1247 2141 1703 1959 
Q 2281 1744 2484 1512 
Q 2688 1281 2688 941 
Q 2688 466 2298 192 
Q 1909 -81 1291 -81 
Q 753 -81 353 122 
L 353 747 
z
" transform="scale(0.015625)"/>
       <path id="MicrosoftYaHei-20" transform="scale(0.015625)"/>
       <path id="MicrosoftYaHei-63" d="M 2934 156 
Q 2538 -81 1978 -81 
Q 1228 -81 772 400 
Q 316 881 316 1647 
Q 316 2497 808 3017 
Q 1300 3538 2125 3538 
Q 2600 3538 2938 3369 
L 2938 2763 
Q 2572 3031 2125 3031 
Q 1600 3031 1270 2667 
Q 941 2303 941 1697 
Q 941 1100 1252 762 
Q 1563 425 2091 425 
Q 2538 425 2934 719 
L 2934 156 
z
" transform="scale(0.015625)"/>
       <path id="MicrosoftYaHei-6f" d="M 316 1691 
Q 316 2547 794 3042 
Q 1272 3538 2091 3538 
Q 2869 3538 3311 3061 
Q 3753 2584 3753 1744 
Q 3753 925 3281 422 
Q 2809 -81 2016 -81 
Q 1241 -81 778 406 
Q 316 894 316 1691 
z
M 941 1709 
Q 941 1113 1242 769 
Q 1544 425 2053 425 
Q 2578 425 2853 761 
Q 3128 1097 3128 1725 
Q 3128 2356 2853 2693 
Q 2578 3031 2053 3031 
Q 1538 3031 1239 2678 
Q 941 2325 941 1709 
z
" transform="scale(0.015625)"/>
       <path id="MicrosoftYaHei-65" d="M 3363 1572 
L 944 1572 
Q 959 1019 1246 717 
Q 1534 416 2050 416 
Q 2631 416 3116 788 
L 3116 241 
Q 2659 -81 1906 -81 
Q 1156 -81 736 394 
Q 316 869 316 1713 
Q 316 2506 777 3022 
Q 1238 3538 1922 3538 
Q 2600 3538 2981 3102 
Q 3363 2666 3363 1881 
L 3363 1572 
z
M 2750 2063 
Q 2747 2531 2528 2787 
Q 2309 3044 1913 3044 
Q 1547 3044 1280 2772 
Q 1013 2500 944 2063 
L 2750 2063 
z
" transform="scale(0.015625)"/>
       <path id="MicrosoftYaHei-66" d="M 2319 4594 
Q 2147 4684 1947 4684 
Q 1372 4684 1372 3972 
L 1372 3456 
L 2181 3456 
L 2181 2950 
L 1372 2950 
L 1372 0 
L 766 0 
L 766 2950 
L 175 2950 
L 175 3456 
L 766 3456 
L 766 4000 
Q 766 4556 1086 4873 
Q 1406 5191 1900 5191 
Q 2163 5191 2319 5131 
L 2319 4594 
z
" transform="scale(0.015625)"/>
       <path id="MicrosoftYaHei-6e" d="M 3469 0 
L 2859 0 
L 2859 1966 
Q 2859 3031 2081 3031 
Q 1678 3031 1418 2731 
Q 1159 2431 1159 1972 
L 1159 0 
L 547 0 
L 547 3456 
L 1159 3456 
L 1159 2884 
L 1172 2884 
Q 1563 3538 2306 3538 
Q 2875 3538 3172 3173 
Q 3469 2809 3469 2113 
L 3469 0 
z
" transform="scale(0.015625)"/>
       <path id="MicrosoftYaHei-74" d="M 2206 34 
Q 2006 -75 1666 -75 
Q 738 -75 738 953 
L 738 2950 
L 144 2950 
L 144 3456 
L 738 3456 
L 738 4288 
L 1347 4481 
L 1347 3456 
L 2206 3456 
L 2206 2950 
L 1347 2950 
L 1347 1063 
Q 1347 722 1462 575 
Q 1578 428 1847 428 
Q 2053 428 2206 544 
L 2206 34 
z
" transform="scale(0.015625)"/>
      </defs>
      <use xlink:href="#MicrosoftYaHei-42"/>
      <use xlink:href="#MicrosoftYaHei-69" transform="translate(62.744141 0)"/>
      <use xlink:href="#MicrosoftYaHei-61" transform="translate(89.355469 0)"/>
      <use xlink:href="#MicrosoftYaHei-73" transform="translate(144.628906 0)"/>
      <use xlink:href="#MicrosoftYaHei-20" transform="translate(190.917969 0)"/>
      <use xlink:href="#MicrosoftYaHei-63" transform="translate(220.507812 0)"/>
      <use xlink:href="#MicrosoftYaHei-6f" transform="translate(270.654297 0)"/>
      <use xlink:href="#MicrosoftYaHei-65" transform="translate(334.228516 0)"/>
      <use xlink:href="#MicrosoftYaHei-66" transform="translate(390.966797 0)"/>
      <use xlink:href="#MicrosoftYaHei-66" transform="translate(425.634766 0)"/>
      <use xlink:href="#MicrosoftYaHei-69" transform="translate(460.302734 0)"/>
      <use xlink:href="#MicrosoftYaHei-63" transform="translate(486.914062 0)"/>
      <use xlink:href="#MicrosoftYaHei-69" transform="translate(537.060547 0)"/>
      <use xlink:href="#MicrosoftYaHei-65" transform="translate(563.671875 0)"/>
      <use xlink:href="#MicrosoftYaHei-6e" transform="translate(620.410156 0)"/>
      <use xlink:href="#MicrosoftYaHei-74" transform="translate(682.03125 0)"/>
     </g>
    </g>
   </g>
   <g id="line2d_31">
    <path d="M 83.113636 119.097598 
L 86.691273 119.037939 
L 89.871394 108.680452 
L 93.051515 103.177518 
L 96.629152 90.534918 
L 99.809273 97.898748 
L 102.989394 100.364016 
L 106.56703 100.520852 
L 109.747152 101.109707 
L 112.927273 101.096892 
L 116.504909 100.90871 
L 126.442788 102.427055 
L 129.622909 102.194364 
L 132.80303 101.18226 
L 136.380667 101.538586 
L 139.560788 102.10386 
L 142.740909 111.238518 
L 146.318545 109.562678 
L 149.498667 101.917614 
L 152.678788 89.638533 
L 156.256424 91.417175 
L 159.436545 87.49857 
L 162.616667 87.307459 
L 166.194303 90.749409 
L 169.374424 86.643052 
L 172.554545 88.011597 
L 176.132182 84.331626 
L 179.312303 79.596293 
L 182.492424 112.256142 
L 186.070061 115.132865 
L 189.250182 116.393663 
L 192.430303 116.061815 
L 196.007939 105.722096 
L 199.188061 132.440531 
L 202.368182 129.647067 
L 205.945818 114.599033 
L 209.125939 117.942701 
L 212.306061 120.231227 
L 215.883697 101.163776 
L 219.063818 94.049682 
L 222.243939 90.54984 
L 225.821576 89.294302 
L 229.001697 83.847755 
L 232.181818 80.337936 
L 235.759455 83.089733 
L 238.939576 83.700023 
L 242.119697 88.953046 
L 245.697333 85.131679 
L 248.877455 89.579672 
L 252.057576 91.523376 
L 255.635212 91.846564 
L 258.815333 110.356903 
L 261.995455 84.144527 
L 265.573091 76.824136 
L 268.753212 79.341053 
L 271.933333 87.235466 
L 275.51097 87.591415 
L 278.691091 84.625242 
L 281.871212 89.004718 
L 285.448848 87.562121 
L 288.62897 86.058115 
L 291.809091 91.515376 
L 295.386727 92.301079 
L 298.566848 92.53345 
L 301.74697 94.070665 
L 305.324606 97.101557 
L 308.504727 96.372933 
L 311.684848 96.234777 
L 315.262485 92.829974 
L 318.442606 92.296494 
L 321.622727 90.950919 
L 328.380485 90.916755 
L 331.560606 79.857367 
L 335.138242 102.373105 
L 338.318364 96.171442 
L 341.498485 95.159188 
L 345.076121 94.932591 
L 348.256242 94.898854 
L 355.014 97.838447 
L 358.194121 101.867242 
L 361.374242 92.955837 
L 364.951879 91.023939 
L 368.132 91.592458 
L 371.312121 89.622073 
L 374.889758 85.381401 
L 378.069879 86.877855 
L 381.25 90.136238 
L 388.007758 100.438298 
L 391.187879 100.5077 
L 394.765515 101.88581 
L 397.945636 109.404572 
L 401.125758 106.708379 
L 404.703394 105.164362 
L 407.883515 114.072735 
L 411.063636 116.603042 
L 414.641273 128.116474 
L 417.821394 157.18163 
L 421.001515 199.917868 
L 424.579152 210.021601 
L 427.759273 176.507413 
L 430.939394 158.078382 
L 434.51703 190.7414 
L 437.697152 187.389363 
L 440.877273 148.422505 
L 444.454909 168.498268 
L 447.63503 155.893622 
L 450.815152 211.005972 
L 454.392788 219.640989 
L 457.572909 230.385 
L 460.75303 209.427694 
L 464.330667 201.467396 
L 467.510788 192.681415 
L 470.690909 164.883122 
L 474.268545 162.200027 
L 477.448667 135.661851 
L 480.628788 121.459429 
L 484.206424 96.831876 
L 487.386545 82.605365 
L 490.566667 64.335359 
L 494.144303 64.363885 
L 497.324424 55.74723 
L 500.504545 48.415167 
L 504.082182 43.885 
L 507.262303 55.993347 
L 510.442424 78.80309 
L 514.020061 78.776968 
L 517.200182 84.051575 
L 520.380303 87.45679 
L 523.957939 86.92747 
L 527.138061 82.587885 
L 530.318182 80.934791 
L 533.895818 191.542494 
L 537.075939 166.245602 
L 540.256061 120.921093 
L 543.833697 119.187308 
L 547.013818 118.889668 
L 550.193939 118.752513 
L 599.883333 119.039322 
L 636.454727 118.464194 
L 649.572727 118.570392 
L 659.510606 118.843918 
L 663.088242 118.82404 
L 669.448485 118.619323 
L 679.386364 118.608758 
L 679.386364 118.608758 
" clip-path="url(#p42ac4e4276)" style="fill: none; stroke: #1f77b4; stroke-width: 1.5; stroke-linecap: square"/>
   </g>
   <g id="line2d_32">
    <path d="M 53.3 118.2531 
L 709.2 118.2531 
" clip-path="url(#p42ac4e4276)" style="fill: none; stroke: #777777; stroke-linecap: square"/>
   </g>
   <g id="line2d_33">
    <path d="M 96.629152 239.71 
L 96.629152 34.56 
" clip-path="url(#p42ac4e4276)" style="fill: none; stroke: #e15759; stroke-opacity: 0.3; stroke-width: 1.5; stroke-linecap: square"/>
   </g>
   <g id="line2d_34">
    <path d="M 543.833697 239.71 
L 543.833697 34.56 
" clip-path="url(#p42ac4e4276)" style="fill: none; stroke: #e15759; stroke-opacity: 0.3; stroke-width: 1.5; stroke-linecap: square"/>
   </g>
   <g id="patch_3">
    <path d="M 53.3 239.71 
L 53.3 34.56 
" style="fill: none; stroke: #000000; stroke-width: 0.8; stroke-linejoin: miter; stroke-linecap: square"/>
   </g>
   <g id="patch_4">
    <path d="M 53.3 239.71 
L 709.2 239.71 
" style="fill: none; stroke: #000000; stroke-width: 0.8; stroke-linejoin: miter; stroke-linecap: square"/>
   </g>
  </g>
  <g id="axes_2">
   <g id="patch_5">
    <path d="M 53.3 459.16 
L 709.2 459.16 
L 709.2 254.01 
L 53.3 254.01 
z
" style="fill: #ffffff"/>
   </g>
   <g id="matplotlib.axis_3">
    <g id="xtick_9">
     <g id="line2d_35">
      <path d="M 83.113636 459.16 
L 83.113636 254.01 
" clip-path="url(#p56761a865f)" style="fill: none; stroke: #b0b0b0; stroke-opacity: 0.25; stroke-width: 0.8; stroke-linecap: square"/>
     </g>
     <g id="line2d_36">
      <g>
       <use xlink:href="#m0cea3c2d1d" x="83.113636" y="459.16" style="stroke: #000000; stroke-width: 0.8"/>
      </g>
     </g>
     <g id="text_9">
      <!-- 0 -->
      <g transform="translate(80.181605 474.15375) scale(0.1 -0.1)">
       <use xlink:href="#MicrosoftYaHei-30"/>
      </g>
     </g>
    </g>
    <g id="xtick_10">
     <g id="line2d_37">
      <path d="M 165.929293 459.16 
L 165.929293 254.01 
" clip-path="url(#p56761a865f)" style="fill: none; stroke: #b0b0b0; stroke-opacity: 0.25; stroke-width: 0.8; stroke-linecap: square"/>
     </g>
     <g id="line2d_38">
      <g>
       <use xlink:href="#m0cea3c2d1d" x="165.929293" y="459.16" style="stroke: #000000; stroke-width: 0.8"/>
      </g>
     </g>
     <g id="text_10">
      <!-- 25 -->
      <g transform="translate(160.06523 474.15375) scale(0.1 -0.1)">
       <defs>
        <path id="MicrosoftYaHei-35" d="M 3294 1494 
Q 3294 784 2823 350 
Q 2353 -84 1559 -84 
Q 878 -84 544 119 
L 544 744 
Q 1034 425 1544 425 
Q 2050 425 2361 704 
Q 2672 984 2672 1447 
Q 2672 1909 2348 2167 
Q 2025 2425 1434 2425 
Q 978 2425 613 2384 
L 791 4841 
L 3053 4841 
L 3053 4303 
L 1306 4303 
L 1206 2931 
L 1647 2950 
Q 2416 2950 2855 2567 
Q 3294 2184 3294 1494 
z
" transform="scale(0.015625)"/>
       </defs>
       <use xlink:href="#MicrosoftYaHei-32"/>
       <use xlink:href="#MicrosoftYaHei-35" transform="translate(58.642578 0)"/>
      </g>
     </g>
    </g>
    <g id="xtick_11">
     <g id="line2d_39">
      <path d="M 248.744949 459.16 
L 248.744949 254.01 
" clip-path="url(#p56761a865f)" style="fill: none; stroke: #b0b0b0; stroke-opacity: 0.25; stroke-width: 0.8; stroke-linecap: square"/>
     </g>
     <g id="line2d_40">
      <g>
       <use xlink:href="#m0cea3c2d1d" x="248.744949" y="459.16" style="stroke: #000000; stroke-width: 0.8"/>
      </g>
     </g>
     <g id="text_11">
      <!-- 50 -->
      <g transform="translate(242.880887 474.15375) scale(0.1 -0.1)">
       <use xlink:href="#MicrosoftYaHei-35"/>
       <use xlink:href="#MicrosoftYaHei-30" transform="translate(58.642578 0)"/>
      </g>
     </g>
    </g>
    <g id="xtick_12">
     <g id="line2d_41">
      <path d="M 331.560606 459.16 
L 331.560606 254.01 
" clip-path="url(#p56761a865f)" style="fill: none; stroke: #b0b0b0; stroke-opacity: 0.25; stroke-width: 0.8; stroke-linecap: square"/>
     </g>
     <g id="line2d_42">
      <g>
       <use xlink:href="#m0cea3c2d1d" x="331.560606" y="459.16" style="stroke: #000000; stroke-width: 0.8"/>
      </g>
     </g>
     <g id="text_12">
      <!-- 75 -->
      <g transform="translate(325.696544 474.15375) scale(0.1 -0.1)">
       <defs>
        <path id="MicrosoftYaHei-37" d="M 3422 4463 
Q 2659 3131 2223 1998 
Q 1788 866 1684 0 
L 1047 0 
Q 1163 853 1594 1947 
Q 2025 3041 2747 4300 
L 347 4300 
L 347 4841 
L 3422 4841 
L 3422 4463 
z
" transform="scale(0.015625)"/>
       </defs>
       <use xlink:href="#MicrosoftYaHei-37"/>
       <use xlink:href="#MicrosoftYaHei-35" transform="translate(58.642578 0)"/>
      </g>
     </g>
    </g>
    <g id="xtick_13">
     <g id="line2d_43">
      <path d="M 414.376263 459.16 
L 414.376263 254.01 
" clip-path="url(#p56761a865f)" style="fill: none; stroke: #b0b0b0; stroke-opacity: 0.25; stroke-width: 0.8; stroke-linecap: square"/>
     </g>
     <g id="line2d_44">
      <g>
       <use xlink:href="#m0cea3c2d1d" x="414.376263" y="459.16" style="stroke: #000000; stroke-width: 0.8"/>
      </g>
     </g>
     <g id="text_13">
      <!-- 100 -->
      <g transform="translate(405.580169 474.15375) scale(0.1 -0.1)">
       <defs>
        <path id="MicrosoftYaHei-31" d="M 1781 0 
L 1781 4141 
Q 1638 3997 1295 3819 
Q 953 3641 663 3569 
L 663 4169 
Q 1047 4275 1484 4508 
Q 1922 4741 2156 4947 
L 2388 4947 
L 2388 0 
L 1781 0 
z
" transform="scale(0.015625)"/>
       </defs>
       <use xlink:href="#MicrosoftYaHei-31"/>
       <use xlink:href="#MicrosoftYaHei-30" transform="translate(58.642578 0)"/>
       <use xlink:href="#MicrosoftYaHei-30" transform="translate(117.285156 0)"/>
      </g>
     </g>
    </g>
    <g id="xtick_14">
     <g id="line2d_45">
      <path d="M 497.191919 459.16 
L 497.191919 254.01 
" clip-path="url(#p56761a865f)" style="fill: none; stroke: #b0b0b0; stroke-opacity: 0.25; stroke-width: 0.8; stroke-linecap: square"/>
     </g>
     <g id="line2d_46">
      <g>
       <use xlink:href="#m0cea3c2d1d" x="497.191919" y="459.16" style="stroke: #000000; stroke-width: 0.8"/>
      </g>
     </g>
     <g id="text_14">
      <!-- 125 -->
      <g transform="translate(488.395825 474.15375) scale(0.1 -0.1)">
       <use xlink:href="#MicrosoftYaHei-31"/>
       <use xlink:href="#MicrosoftYaHei-32" transform="translate(58.642578 0)"/>
       <use xlink:href="#MicrosoftYaHei-35" transform="translate(117.285156 0)"/>
      </g>
     </g>
    </g>
    <g id="xtick_15">
     <g id="line2d_47">
      <path d="M 580.007576 459.16 
L 580.007576 254.01 
" clip-path="url(#p56761a865f)" style="fill: none; stroke: #b0b0b0; stroke-opacity: 0.25; stroke-width: 0.8; stroke-linecap: square"/>
     </g>
     <g id="line2d_48">
      <g>
       <use xlink:href="#m0cea3c2d1d" x="580.007576" y="459.16" style="stroke: #000000; stroke-width: 0.8"/>
      </g>
     </g>
     <g id="text_15">
      <!-- 150 -->
      <g transform="translate(571.211482 474.15375) scale(0.1 -0.1)">
       <use xlink:href="#MicrosoftYaHei-31"/>
       <use xlink:href="#MicrosoftYaHei-35" transform="translate(58.642578 0)"/>
       <use xlink:href="#MicrosoftYaHei-30" transform="translate(117.285156 0)"/>
      </g>
     </g>
    </g>
    <g id="xtick_16">
     <g id="line2d_49">
      <path d="M 662.823232 459.16 
L 662.823232 254.01 
" clip-path="url(#p56761a865f)" style="fill: none; stroke: #b0b0b0; stroke-opacity: 0.25; stroke-width: 0.8; stroke-linecap: square"/>
     </g>
     <g id="line2d_50">
      <g>
       <use xlink:href="#m0cea3c2d1d" x="662.823232" y="459.16" style="stroke: #000000; stroke-width: 0.8"/>
      </g>
     </g>
     <g id="text_16">
      <!-- 175 -->
      <g transform="translate(654.027139 474.15375) scale(0.1 -0.1)">
       <use xlink:href="#MicrosoftYaHei-31"/>
       <use xlink:href="#MicrosoftYaHei-37" transform="translate(58.642578 0)"/>
       <use xlink:href="#MicrosoftYaHei-35" transform="translate(117.285156 0)"/>
      </g>
     </g>
    </g>
    <g id="text_17">
     <!-- RLS feedback window start (s) -->
     <g transform="translate(309.682812 488.633437) scale(0.1 -0.1)">
      <defs>
       <path id="MicrosoftYaHei-52" d="M 4159 0 
L 3422 0 
L 2619 1344 
Q 2378 1747 2178 1892 
Q 1978 2038 1700 2038 
L 1250 2038 
L 1250 0 
L 625 0 
L 625 4841 
L 2100 4841 
Q 2806 4841 3206 4500 
Q 3606 4159 3606 3547 
Q 3606 2541 2531 2241 
L 2531 2225 
Q 2731 2141 2876 1984 
Q 3022 1828 3253 1450 
L 4159 0 
z
M 1250 4294 
L 1250 2584 
L 1988 2584 
Q 2416 2584 2683 2834 
Q 2950 3084 2950 3491 
Q 2950 3869 2706 4081 
Q 2463 4294 1997 4294 
L 1250 4294 
z
" transform="scale(0.015625)"/>
       <path id="MicrosoftYaHei-4c" d="M 3178 0 
L 625 0 
L 625 4841 
L 1250 4841 
L 1250 553 
L 3178 553 
L 3178 0 
z
" transform="scale(0.015625)"/>
       <path id="MicrosoftYaHei-53" d="M 400 909 
Q 622 716 994 591 
Q 1366 466 1700 466 
Q 2719 466 2719 1191 
Q 2719 1394 2609 1556 
Q 2500 1719 2309 1844 
Q 2119 1969 1594 2228 
Q 866 2591 634 2902 
Q 403 3213 403 3613 
Q 403 4216 887 4569 
Q 1372 4922 2109 4922 
Q 2831 4922 3169 4747 
L 3169 4066 
Q 2731 4369 2063 4369 
Q 1619 4369 1339 4183 
Q 1059 3997 1059 3666 
Q 1059 3372 1253 3187 
Q 1447 3003 2094 2684 
Q 2806 2344 3090 2003 
Q 3375 1663 3375 1238 
Q 3375 600 2912 259 
Q 2450 -81 1628 -81 
Q 1341 -81 958 -1 
Q 575 78 400 197 
L 400 909 
z
" transform="scale(0.015625)"/>
       <path id="MicrosoftYaHei-64" d="M 3547 0 
L 2934 0 
L 2934 575 
L 2922 575 
Q 2544 -81 1747 -81 
Q 1091 -81 703 386 
Q 316 853 316 1647 
Q 316 2503 753 3020 
Q 1191 3538 1897 3538 
Q 2603 3538 2922 2988 
L 2934 2988 
L 2934 5116 
L 3547 5116 
L 3547 0 
z
M 2938 2056 
Q 2938 2472 2664 2751 
Q 2391 3031 1991 3031 
Q 1503 3031 1222 2667 
Q 941 2303 941 1675 
Q 941 1097 1211 761 
Q 1481 425 1931 425 
Q 2375 425 2656 754 
Q 2938 1084 2938 1575 
L 2938 2056 
z
" transform="scale(0.015625)"/>
       <path id="MicrosoftYaHei-62" d="M 1159 488 
L 1159 0 
L 547 0 
L 547 5116 
L 1159 5116 
L 1159 2859 
L 1172 2859 
Q 1578 3538 2359 3538 
Q 3009 3538 3392 3080 
Q 3775 2622 3775 1828 
Q 3775 953 3345 436 
Q 2916 -81 2200 -81 
Q 1525 -81 1172 488 
L 1159 488 
z
M 1156 1422 
Q 1156 1003 1428 714 
Q 1700 425 2109 425 
Q 2597 425 2872 800 
Q 3147 1175 3147 1838 
Q 3147 2384 2890 2707 
Q 2634 3031 2191 3031 
Q 1741 3031 1448 2709 
Q 1156 2388 1156 1891 
L 1156 1422 
z
" transform="scale(0.015625)"/>
       <path id="MicrosoftYaHei-6b" d="M 3484 0 
L 2650 0 
L 1172 1666 
L 1159 1666 
L 1159 0 
L 547 0 
L 547 5116 
L 1159 5116 
L 1159 1872 
L 1172 1872 
L 2575 3456 
L 3363 3456 
L 1800 1794 
L 3484 0 
z
" transform="scale(0.015625)"/>
       <path id="MicrosoftYaHei-77" d="M 4975 3456 
L 3944 0 
L 3306 0 
L 2619 2425 
Q 2575 2581 2563 2756 
L 2550 2756 
Q 2541 2625 2478 2431 
L 1734 0 
L 1116 0 
L 78 3456 
L 716 3456 
L 1406 894 
Q 1438 778 1453 578 
L 1478 578 
Q 1491 750 1538 903 
L 2281 3456 
L 2847 3456 
L 3572 891 
Q 3603 778 3622 572 
L 3650 572 
Q 3656 709 3706 891 
L 4381 3456 
L 4975 3456 
z
" transform="scale(0.015625)"/>
       <path id="MicrosoftYaHei-72" d="M 2400 2850 
Q 2247 2959 1978 2959 
Q 1622 2959 1390 2626 
Q 1159 2294 1159 1750 
L 1159 0 
L 547 0 
L 547 3456 
L 1159 3456 
L 1159 2753 
L 1172 2753 
Q 1434 3516 2078 3516 
Q 2288 3516 2400 3469 
L 2400 2850 
z
" transform="scale(0.015625)"/>
       <path id="MicrosoftYaHei-28" d="M 1531 -1100 
Q 478 100 478 1847 
Q 478 3594 1531 4841 
L 2072 4841 
Q 1016 3544 1016 1853 
Q 1016 166 2066 -1100 
L 1531 -1100 
z
" transform="scale(0.015625)"/>
       <path id="MicrosoftYaHei-29" d="M 78 -1100 
Q 1131 163 1131 1853 
Q 1131 3547 72 4841 
L 616 4841 
Q 1672 3603 1672 1847 
Q 1672 91 616 -1100 
L 78 -1100 
z
" transform="scale(0.015625)"/>
      </defs>
      <use xlink:href="#MicrosoftYaHei-52"/>
      <use xlink:href="#MicrosoftYaHei-4c" transform="translate(65.283203 0)"/>
      <use xlink:href="#MicrosoftYaHei-53" transform="translate(116.601562 0)"/>
      <use xlink:href="#MicrosoftYaHei-20" transform="translate(174.316406 0)"/>
      <use xlink:href="#MicrosoftYaHei-66" transform="translate(203.90625 0)"/>
      <use xlink:href="#MicrosoftYaHei-65" transform="translate(238.574219 0)"/>
      <use xlink:href="#MicrosoftYaHei-65" transform="translate(295.3125 0)"/>
      <use xlink:href="#MicrosoftYaHei-64" transform="translate(352.050781 0)"/>
      <use xlink:href="#MicrosoftYaHei-62" transform="translate(416.015625 0)"/>
      <use xlink:href="#MicrosoftYaHei-61" transform="translate(478.507812 0)"/>
      <use xlink:href="#MicrosoftYaHei-63" transform="translate(533.78125 0)"/>
      <use xlink:href="#MicrosoftYaHei-6b" transform="translate(583.927734 0)"/>
      <use xlink:href="#MicrosoftYaHei-20" transform="translate(638.371094 0)"/>
      <use xlink:href="#MicrosoftYaHei-77" transform="translate(667.960938 0)"/>
      <use xlink:href="#MicrosoftYaHei-69" transform="translate(746.916016 0)"/>
      <use xlink:href="#MicrosoftYaHei-6e" transform="translate(773.527344 0)"/>
      <use xlink:href="#MicrosoftYaHei-64" transform="translate(835.148438 0)"/>
      <use xlink:href="#MicrosoftYaHei-6f" transform="translate(899.113281 0)"/>
      <use xlink:href="#MicrosoftYaHei-77" transform="translate(962.6875 0)"/>
      <use xlink:href="#MicrosoftYaHei-20" transform="translate(1041.642578 0)"/>
      <use xlink:href="#MicrosoftYaHei-73" transform="translate(1071.232422 0)"/>
      <use xlink:href="#MicrosoftYaHei-74" transform="translate(1117.521484 0)"/>
      <use xlink:href="#MicrosoftYaHei-61" transform="translate(1154.777344 0)"/>
      <use xlink:href="#MicrosoftYaHei-72" transform="translate(1210.050781 0)"/>
      <use xlink:href="#MicrosoftYaHei-74" transform="translate(1251.359375 0)"/>
      <use xlink:href="#MicrosoftYaHei-20" transform="translate(1288.615234 0)"/>
      <use xlink:href="#MicrosoftYaHei-28" transform="translate(1318.205078 0)"/>
      <use xlink:href="#MicrosoftYaHei-73" transform="translate(1351.603516 0)"/>
      <use xlink:href="#MicrosoftYaHei-29" transform="translate(1397.892578 0)"/>
     </g>
    </g>
   </g>
   <g id="matplotlib.axis_4">
    <g id="ytick_8">
     <g id="line2d_51">
      <path d="M 53.3 451.983844 
L 709.2 451.983844 
" clip-path="url(#p56761a865f)" style="fill: none; stroke: #b0b0b0; stroke-opacity: 0.25; stroke-width: 0.8; stroke-linecap: square"/>
     </g>
     <g id="line2d_52">
      <g>
       <use xlink:href="#me10b68eb2d" x="53.3" y="451.983844" style="stroke: #000000; stroke-width: 0.8"/>
      </g>
     </g>
     <g id="text_18">
      <!-- 0.4 -->
      <g transform="translate(32.164063 455.980719) scale(0.1 -0.1)">
       <use xlink:href="#MicrosoftYaHei-30"/>
       <use xlink:href="#MicrosoftYaHei-2e" transform="translate(58.642578 0)"/>
       <use xlink:href="#MicrosoftYaHei-34" transform="translate(82.714844 0)"/>
      </g>
     </g>
    </g>
    <g id="ytick_9">
     <g id="line2d_53">
      <path d="M 53.3 426.884005 
L 709.2 426.884005 
" clip-path="url(#p56761a865f)" style="fill: none; stroke: #b0b0b0; stroke-opacity: 0.25; stroke-width: 0.8; stroke-linecap: square"/>
     </g>
     <g id="line2d_54">
      <g>
       <use xlink:href="#me10b68eb2d" x="53.3" y="426.884005" style="stroke: #000000; stroke-width: 0.8"/>
      </g>
     </g>
     <g id="text_19">
      <!-- 0.6 -->
      <g transform="translate(32.164063 430.88088) scale(0.1 -0.1)">
       <use xlink:href="#MicrosoftYaHei-30"/>
       <use xlink:href="#MicrosoftYaHei-2e" transform="translate(58.642578 0)"/>
       <use xlink:href="#MicrosoftYaHei-36" transform="translate(82.714844 0)"/>
      </g>
     </g>
    </g>
    <g id="ytick_10">
     <g id="line2d_55">
      <path d="M 53.3 401.784166 
L 709.2 401.784166 
" clip-path="url(#p56761a865f)" style="fill: none; stroke: #b0b0b0; stroke-opacity: 0.25; stroke-width: 0.8; stroke-linecap: square"/>
     </g>
     <g id="line2d_56">
      <g>
       <use xlink:href="#me10b68eb2d" x="53.3" y="401.784166" style="stroke: #000000; stroke-width: 0.8"/>
      </g>
     </g>
     <g id="text_20">
      <!-- 0.8 -->
      <g transform="translate(32.164063 405.781041) scale(0.1 -0.1)">
       <use xlink:href="#MicrosoftYaHei-30"/>
       <use xlink:href="#MicrosoftYaHei-2e" transform="translate(58.642578 0)"/>
       <use xlink:href="#MicrosoftYaHei-38" transform="translate(82.714844 0)"/>
      </g>
     </g>
    </g>
    <g id="ytick_11">
     <g id="line2d_57">
      <path d="M 53.3 376.684328 
L 709.2 376.684328 
" clip-path="url(#p56761a865f)" style="fill: none; stroke: #b0b0b0; stroke-opacity: 0.25; stroke-width: 0.8; stroke-linecap: square"/>
     </g>
     <g id="line2d_58">
      <g>
       <use xlink:href="#me10b68eb2d" x="53.3" y="376.684328" style="stroke: #000000; stroke-width: 0.8"/>
      </g>
     </g>
     <g id="text_21">
      <!-- 1.0 -->
      <g transform="translate(32.164063 380.681203) scale(0.1 -0.1)">
       <use xlink:href="#MicrosoftYaHei-31"/>
       <use xlink:href="#MicrosoftYaHei-2e" transform="translate(58.642578 0)"/>
       <use xlink:href="#MicrosoftYaHei-30" transform="translate(82.714844 0)"/>
      </g>
     </g>
    </g>
    <g id="ytick_12">
     <g id="line2d_59">
      <path d="M 53.3 351.584489 
L 709.2 351.584489 
" clip-path="url(#p56761a865f)" style="fill: none; stroke: #b0b0b0; stroke-opacity: 0.25; stroke-width: 0.8; stroke-linecap: square"/>
     </g>
     <g id="line2d_60">
      <g>
       <use xlink:href="#me10b68eb2d" x="53.3" y="351.584489" style="stroke: #000000; stroke-width: 0.8"/>
      </g>
     </g>
     <g id="text_22">
      <!-- 1.2 -->
      <g transform="translate(32.164063 355.581364) scale(0.1 -0.1)">
       <use xlink:href="#MicrosoftYaHei-31"/>
       <use xlink:href="#MicrosoftYaHei-2e" transform="translate(58.642578 0)"/>
       <use xlink:href="#MicrosoftYaHei-32" transform="translate(82.714844 0)"/>
      </g>
     </g>
    </g>
    <g id="ytick_13">
     <g id="line2d_61">
      <path d="M 53.3 326.48465 
L 709.2 326.48465 
" clip-path="url(#p56761a865f)" style="fill: none; stroke: #b0b0b0; stroke-opacity: 0.25; stroke-width: 0.8; stroke-linecap: square"/>
     </g>
     <g id="line2d_62">
      <g>
       <use xlink:href="#me10b68eb2d" x="53.3" y="326.48465" style="stroke: #000000; stroke-width: 0.8"/>
      </g>
     </g>
     <g id="text_23">
      <!-- 1.4 -->
      <g transform="translate(32.164063 330.481525) scale(0.1 -0.1)">
       <use xlink:href="#MicrosoftYaHei-31"/>
       <use xlink:href="#MicrosoftYaHei-2e" transform="translate(58.642578 0)"/>
       <use xlink:href="#MicrosoftYaHei-34" transform="translate(82.714844 0)"/>
      </g>
     </g>
    </g>
    <g id="ytick_14">
     <g id="line2d_63">
      <path d="M 53.3 301.384812 
L 709.2 301.384812 
" clip-path="url(#p56761a865f)" style="fill: none; stroke: #b0b0b0; stroke-opacity: 0.25; stroke-width: 0.8; stroke-linecap: square"/>
     </g>
     <g id="line2d_64">
      <g>
       <use xlink:href="#me10b68eb2d" x="53.3" y="301.384812" style="stroke: #000000; stroke-width: 0.8"/>
      </g>
     </g>
     <g id="text_24">
      <!-- 1.6 -->
      <g transform="translate(32.164063 305.381687) scale(0.1 -0.1)">
       <use xlink:href="#MicrosoftYaHei-31"/>
       <use xlink:href="#MicrosoftYaHei-2e" transform="translate(58.642578 0)"/>
       <use xlink:href="#MicrosoftYaHei-36" transform="translate(82.714844 0)"/>
      </g>
     </g>
    </g>
    <g id="ytick_15">
     <g id="line2d_65">
      <path d="M 53.3 276.284973 
L 709.2 276.284973 
" clip-path="url(#p56761a865f)" style="fill: none; stroke: #b0b0b0; stroke-opacity: 0.25; stroke-width: 0.8; stroke-linecap: square"/>
     </g>
     <g id="line2d_66">
      <g>
       <use xlink:href="#me10b68eb2d" x="53.3" y="276.284973" style="stroke: #000000; stroke-width: 0.8"/>
      </g>
     </g>
     <g id="text_25">
      <!-- 1.8 -->
      <g transform="translate(32.164063 280.281848) scale(0.1 -0.1)">
       <use xlink:href="#MicrosoftYaHei-31"/>
       <use xlink:href="#MicrosoftYaHei-2e" transform="translate(58.642578 0)"/>
       <use xlink:href="#MicrosoftYaHei-38" transform="translate(82.714844 0)"/>
      </g>
     </g>
    </g>
    <g id="text_26">
     <!-- Scale coefficient -->
     <g transform="translate(25.678125 395.327187) rotate(-90) scale(0.1 -0.1)">
      <defs>
       <path id="MicrosoftYaHei-6c" d="M 544 0 
L 544 5116 
L 1156 5116 
L 1156 0 
L 544 0 
z
" transform="scale(0.015625)"/>
      </defs>
      <use xlink:href="#MicrosoftYaHei-53"/>
      <use xlink:href="#MicrosoftYaHei-63" transform="translate(57.714844 0)"/>
      <use xlink:href="#MicrosoftYaHei-61" transform="translate(107.861328 0)"/>
      <use xlink:href="#MicrosoftYaHei-6c" transform="translate(163.134766 0)"/>
      <use xlink:href="#MicrosoftYaHei-65" transform="translate(189.746094 0)"/>
      <use xlink:href="#MicrosoftYaHei-20" transform="translate(246.484375 0)"/>
      <use xlink:href="#MicrosoftYaHei-63" transform="translate(276.074219 0)"/>
      <use xlink:href="#MicrosoftYaHei-6f" transform="translate(326.220703 0)"/>
      <use xlink:href="#MicrosoftYaHei-65" transform="translate(389.794922 0)"/>
      <use xlink:href="#MicrosoftYaHei-66" transform="translate(446.533203 0)"/>
      <use xlink:href="#MicrosoftYaHei-66" transform="translate(481.201172 0)"/>
      <use xlink:href="#MicrosoftYaHei-69" transform="translate(515.869141 0)"/>
      <use xlink:href="#MicrosoftYaHei-63" transform="translate(542.480469 0)"/>
      <use xlink:href="#MicrosoftYaHei-69" transform="translate(592.626953 0)"/>
      <use xlink:href="#MicrosoftYaHei-65" transform="translate(619.238281 0)"/>
      <use xlink:href="#MicrosoftYaHei-6e" transform="translate(675.976562 0)"/>
      <use xlink:href="#MicrosoftYaHei-74" transform="translate(737.597656 0)"/>
     </g>
    </g>
   </g>
   <g id="line2d_67">
    <path d="M 83.113636 376.692516 
L 86.691273 376.691965 
L 93.051515 376.031469 
L 96.629152 370.66026 
L 99.809273 385.03604 
L 102.989394 390.780839 
L 106.56703 391.116105 
L 109.747152 389.037589 
L 112.927273 389.750465 
L 116.504909 389.611124 
L 119.68503 390.659394 
L 122.865152 391.405692 
L 126.442788 391.951154 
L 129.622909 391.85513 
L 132.80303 391.884244 
L 136.380667 392.598034 
L 139.560788 392.524337 
L 142.740909 387.539477 
L 146.318545 387.401648 
L 149.498667 396.735091 
L 152.678788 404.182751 
L 156.256424 401.383281 
L 159.436545 401.696575 
L 162.616667 401.769859 
L 166.194303 399.757883 
L 169.374424 404.074282 
L 172.554545 404.492765 
L 176.132182 405.704001 
L 179.312303 409.249259 
L 182.492424 383.663657 
L 186.070061 382.579367 
L 189.250182 381.367309 
L 192.430303 381.557496 
L 196.007939 389.868177 
L 199.188061 368.567042 
L 202.368182 371.520033 
L 205.945818 385.759331 
L 209.125939 383.301437 
L 212.306061 381.454818 
L 215.883697 397.120958 
L 219.063818 402.808607 
L 222.243939 405.490573 
L 225.821576 406.402987 
L 229.001697 410.50567 
L 232.181818 413.343317 
L 235.759455 411.166724 
L 238.939576 410.723317 
L 242.119697 404.920823 
L 245.697333 408.767522 
L 248.877455 403.192034 
L 252.057576 401.086259 
L 255.635212 400.996558 
L 258.815333 385.542135 
L 261.995455 409.197369 
L 265.573091 415.726253 
L 268.753212 413.480107 
L 271.933333 406.598192 
L 275.51097 406.292895 
L 278.691091 408.661671 
L 281.871212 405.007095 
L 285.448848 406.276159 
L 288.62897 407.542792 
L 291.809091 402.820601 
L 295.386727 402.150993 
L 298.566848 402.223369 
L 301.74697 401.294559 
L 305.324606 398.477561 
L 308.504727 399.032449 
L 311.684848 399.223131 
L 315.262485 403.355843 
L 318.442606 403.651507 
L 321.622727 404.691466 
L 325.200364 404.326323 
L 328.380485 404.745698 
L 331.560606 416.781269 
L 335.138242 393.205627 
L 338.318364 400.661437 
L 341.498485 402.153555 
L 345.076121 402.420127 
L 348.256242 402.529931 
L 351.436364 400.883142 
L 355.014 400.464518 
L 358.194121 397.059285 
L 361.374242 404.983887 
L 364.951879 406.463563 
L 368.132 404.243631 
L 371.312121 405.070394 
L 374.889758 408.787771 
L 378.069879 407.678765 
L 381.25 405.434923 
L 388.007758 396.482332 
L 391.187879 396.397906 
L 394.765515 395.765488 
L 397.945636 389.171199 
L 401.125758 391.576397 
L 404.703394 393.312625 
L 407.883515 383.713856 
L 411.063636 381.375936 
L 414.641273 369.461315 
L 417.821394 339.694122 
L 421.001515 294.381515 
L 424.579152 282.112226 
L 427.759273 312.646436 
L 430.939394 330.070643 
L 434.51703 298.950111 
L 437.697152 303.187829 
L 440.877273 342.59805 
L 444.454909 323.248024 
L 447.63503 335.566321 
L 450.815152 281.967327 
L 454.392788 274.252412 
L 457.572909 263.335 
L 460.75303 284.057762 
L 464.330667 291.818574 
L 467.510788 300.503717 
L 470.690909 327.467913 
L 474.268545 330.389977 
L 477.448667 358.117541 
L 480.628788 372.852152 
L 484.206424 398.201223 
L 487.386545 412.931663 
L 490.566667 432.153348 
L 494.144303 430.806513 
L 497.324424 438.363674 
L 500.504545 445.120653 
L 504.082182 449.835 
L 507.262303 437.243732 
L 510.442424 414.26763 
L 514.020061 414.263227 
L 517.200182 408.45746 
L 520.380303 406.20433 
L 523.957939 406.899072 
L 527.138061 411.039379 
L 530.318182 412.782032 
L 533.895818 305.00227 
L 537.075939 329.962596 
L 540.256061 376.073851 
L 543.833697 376.70357 
L 606.641091 376.77592 
L 616.57897 376.892857 
L 646.392606 377.03449 
L 649.572727 377.19192 
L 659.510606 378.405054 
L 663.088242 378.432235 
L 666.268364 379.626957 
L 669.448485 380.102956 
L 676.206242 380.428795 
L 679.386364 380.428795 
L 679.386364 380.428795 
" clip-path="url(#p56761a865f)" style="fill: none; stroke: #f28e2b; stroke-width: 1.5; stroke-linecap: square"/>
   </g>
   <g id="line2d_68">
    <path d="M 53.3 376.684328 
L 709.2 376.684328 
" clip-path="url(#p56761a865f)" style="fill: none; stroke: #777777; stroke-linecap: square"/>
   </g>
   <g id="line2d_69">
    <path d="M 96.629152 459.16 
L 96.629152 254.01 
" clip-path="url(#p56761a865f)" style="fill: none; stroke: #e15759; stroke-opacity: 0.3; stroke-width: 1.5; stroke-linecap: square"/>
   </g>
   <g id="line2d_70">
    <path d="M 543.833697 459.16 
L 543.833697 254.01 
" clip-path="url(#p56761a865f)" style="fill: none; stroke: #e15759; stroke-opacity: 0.3; stroke-width: 1.5; stroke-linecap: square"/>
   </g>
   <g id="patch_6">
    <path d="M 53.3 459.16 
L 53.3 254.01 
" style="fill: none; stroke: #000000; stroke-width: 0.8; stroke-linejoin: miter; stroke-linecap: square"/>
   </g>
   <g id="patch_7">
    <path d="M 53.3 459.16 
L 709.2 459.16 
" style="fill: none; stroke: #000000; stroke-width: 0.8; stroke-linejoin: miter; stroke-linecap: square"/>
   </g>
  </g>
  <g id="text_27">
   <!-- Flight 3 RLS Parameter Trace -->
   <g transform="translate(278.58375 19.6725) scale(0.12 -0.12)">
    <defs>
     <path id="MicrosoftYaHei-46" d="M 3119 4284 
L 1250 4284 
L 1250 2666 
L 2981 2666 
L 2981 2116 
L 1250 2116 
L 1250 0 
L 625 0 
L 625 4841 
L 3119 4841 
L 3119 4284 
z
" transform="scale(0.015625)"/>
     <path id="MicrosoftYaHei-67" d="M 3547 291 
Q 3547 -1628 1684 -1628 
Q 1041 -1628 566 -1388 
L 566 -797 
Q 1144 -1119 1675 -1119 
Q 2934 -1119 2934 206 
L 2934 572 
L 2922 572 
Q 2528 -81 1747 -81 
Q 1097 -81 706 384 
Q 316 850 316 1619 
Q 316 2503 747 3020 
Q 1178 3538 1897 3538 
Q 2588 3538 2922 2988 
L 2934 2988 
L 2934 3456 
L 3547 3456 
L 3547 291 
z
M 2934 2056 
Q 2938 2456 2666 2743 
Q 2394 3031 1997 3031 
Q 1497 3031 1219 2664 
Q 941 2297 941 1656 
Q 941 1106 1209 765 
Q 1478 425 1922 425 
Q 2369 425 2653 750 
Q 2938 1075 2934 1575 
L 2934 2056 
z
" transform="scale(0.015625)"/>
     <path id="MicrosoftYaHei-68" d="M 3466 0 
L 2856 0 
L 2856 1988 
Q 2856 3031 2081 3031 
Q 1684 3031 1421 2726 
Q 1159 2422 1159 1959 
L 1159 0 
L 547 0 
L 547 5116 
L 1159 5116 
L 1159 2888 
L 1172 2888 
Q 1569 3538 2300 3538 
Q 3466 3538 3466 2128 
L 3466 0 
z
" transform="scale(0.015625)"/>
     <path id="MicrosoftYaHei-33" d="M 447 809 
Q 944 425 1569 425 
Q 2069 425 2361 670 
Q 2653 916 2653 1328 
Q 2653 2247 1338 2247 
L 934 2247 
L 934 2753 
L 1319 2753 
Q 2484 2753 2484 3616 
Q 2484 4413 1594 4413 
Q 1084 4413 634 4069 
L 634 4647 
Q 1109 4922 1744 4922 
Q 2363 4922 2738 4598 
Q 3113 4275 3113 3759 
Q 3113 2809 2144 2538 
L 2144 2525 
Q 2669 2469 2973 2155 
Q 3278 1841 3278 1372 
Q 3278 719 2808 319 
Q 2338 -81 1556 -81 
Q 869 -81 447 175 
L 447 809 
z
" transform="scale(0.015625)"/>
     <path id="MicrosoftYaHei-50" d="M 1250 1809 
L 1250 0 
L 625 0 
L 625 4841 
L 2000 4841 
Q 2784 4841 3217 4462 
Q 3650 4084 3650 3381 
Q 3650 2669 3144 2226 
Q 2638 1784 1878 1809 
L 1250 1809 
z
M 1250 4291 
L 1250 2359 
L 1828 2359 
Q 2400 2359 2697 2617 
Q 2994 2875 2994 3356 
Q 2994 4291 1888 4291 
L 1250 4291 
z
" transform="scale(0.015625)"/>
     <path id="MicrosoftYaHei-6d" d="M 5522 0 
L 4909 0 
L 4909 1984 
Q 4909 2547 4734 2789 
Q 4559 3031 4159 3031 
Q 3822 3031 3581 2715 
Q 3341 2400 3341 1969 
L 3341 0 
L 2728 0 
L 2728 2047 
Q 2728 3031 1969 3031 
Q 1619 3031 1389 2731 
Q 1159 2431 1159 1966 
L 1159 0 
L 547 0 
L 547 3456 
L 1159 3456 
L 1159 2909 
L 1172 2909 
Q 1541 3538 2250 3538 
Q 2597 3538 2862 3347 
Q 3128 3156 3231 2831 
Q 3616 3538 4381 3538 
Q 5522 3538 5522 2131 
L 5522 0 
z
" transform="scale(0.015625)"/>
     <path id="MicrosoftYaHei-54" d="M 3550 4284 
L 2153 4284 
L 2153 0 
L 1525 0 
L 1525 4284 
L 134 4284 
L 134 4841 
L 3550 4841 
L 3550 4284 
z
" transform="scale(0.015625)"/>
    </defs>
    <use xlink:href="#MicrosoftYaHei-46"/>
    <use xlink:href="#MicrosoftYaHei-6c" transform="translate(53.125 0)"/>
    <use xlink:href="#MicrosoftYaHei-69" transform="translate(79.736328 0)"/>
    <use xlink:href="#MicrosoftYaHei-67" transform="translate(106.347656 0)"/>
    <use xlink:href="#MicrosoftYaHei-68" transform="translate(170.3125 0)"/>
    <use xlink:href="#MicrosoftYaHei-74" transform="translate(231.884766 0)"/>
    <use xlink:href="#MicrosoftYaHei-20" transform="translate(269.140625 0)"/>
    <use xlink:href="#MicrosoftYaHei-33" transform="translate(298.730469 0)"/>
    <use xlink:href="#MicrosoftYaHei-20" transform="translate(357.373047 0)"/>
    <use xlink:href="#MicrosoftYaHei-52" transform="translate(386.962891 0)"/>
    <use xlink:href="#MicrosoftYaHei-4c" transform="translate(452.246094 0)"/>
    <use xlink:href="#MicrosoftYaHei-53" transform="translate(503.564453 0)"/>
    <use xlink:href="#MicrosoftYaHei-20" transform="translate(561.279297 0)"/>
    <use xlink:href="#MicrosoftYaHei-50" transform="translate(590.869141 0)"/>
    <use xlink:href="#MicrosoftYaHei-61" transform="translate(648.550781 0)"/>
    <use xlink:href="#MicrosoftYaHei-72" transform="translate(703.824219 0)"/>
    <use xlink:href="#MicrosoftYaHei-61" transform="translate(742.007812 0)"/>
    <use xlink:href="#MicrosoftYaHei-6d" transform="translate(797.28125 0)"/>
    <use xlink:href="#MicrosoftYaHei-65" transform="translate(890.982422 0)"/>
    <use xlink:href="#MicrosoftYaHei-74" transform="translate(947.720703 0)"/>
    <use xlink:href="#MicrosoftYaHei-65" transform="translate(984.101562 0)"/>
    <use xlink:href="#MicrosoftYaHei-72" transform="translate(1040.839844 0)"/>
    <use xlink:href="#MicrosoftYaHei-20" transform="translate(1079.023438 0)"/>
    <use xlink:href="#MicrosoftYaHei-54" transform="translate(1108.613281 0)"/>
    <use xlink:href="#MicrosoftYaHei-72" transform="translate(1156.5625 0)"/>
    <use xlink:href="#MicrosoftYaHei-61" transform="translate(1194.746094 0)"/>
    <use xlink:href="#MicrosoftYaHei-63" transform="translate(1250.019531 0)"/>
    <use xlink:href="#MicrosoftYaHei-65" transform="translate(1300.166016 0)"/>
   </g>
  </g>
 </g>
 <defs>
  <clipPath id="p42ac4e4276">
   <rect x="53.3" y="34.56" width="655.9" height="205.15"/>
  </clipPath>
  <clipPath id="p56761a865f">
   <rect x="53.3" y="254.01" width="655.9" height="205.15"/>
  </clipPath>
 </defs>
</svg>
